<?xml version="1.0" encoding="UTF-8" standalone="no"?><!-- Generator: Gravit.io --><svg xmlns="http://www.w3.org/2000/svg" xmlns:xlink="http://www.w3.org/1999/xlink" style="isolation:isolate" viewBox="0 0 234.61 88.32" width="234.61pt" height="88.32pt"><defs><clipPath id="_clipPath_jkMEf9VDBGqF1vhuGaSR0AShALDXh5jZ"><rect width="234.61" height="88.32"/></clipPath></defs><g clip-path="url(#_clipPath_jkMEf9VDBGqF1vhuGaSR0AShALDXh5jZ)"><g><path d=" M 5.753 83.692 L 229.149 83.692 C 230.396 83.692 231.41 82.729 231.41 81.538 L 231.41 5.788 C 231.41 4.601 230.396 3.635 229.149 3.635 L 5.753 3.635 C 4.503 3.635 3.492 4.601 3.492 5.788 L 3.492 81.538 C 3.492 82.729 4.503 83.692 5.753 83.692 Z " fill="rgb(255,255,255)"/><path d=" M 5.503 3.635 L 19.824 3.635 L 19.824 83.692 L 5.503 83.692 C 4.391 83.692 3.492 82.729 3.492 81.538 L 3.492 5.788 C 3.492 4.601 4.391 3.635 5.503 3.635 Z " fill="rgb(153,153,153)" style="mix-blend-mode:multiply;"/><path d=" M 6.33 88.32 C 4.65 88.32 3.04 87.66 1.86 86.47 C 0.67 85.29 0 83.68 0 82 L 0 6.32 C 0 4.64 0.67 3.03 1.86 1.85 C 3.04 0.66 4.65 0 6.33 0 L 117.11 0 C 118.07 0 118.99 0.38 119.67 1.06 C 120.36 1.74 120.74 2.67 120.74 3.63 C 120.74 4.59 120.36 5.52 119.67 6.2 C 118.99 6.88 118.07 7.27 117.1 7.27 L 7.27 7.27 L 7.27 81.06 L 227.34 81.06 L 227.34 7.27 L 190.49 7.27 C 189.53 7.27 188.6 6.88 187.92 6.2 C 187.24 5.52 186.86 4.59 186.86 3.63 C 186.86 2.67 187.24 1.74 187.92 1.06 C 188.6 0.38 189.53 0 190.49 0 L 228.29 0 C 229.96 0 231.57 0.66 232.76 1.85 C 233.94 3.03 234.61 4.64 234.61 6.32 L 234.61 82 C 234.61 83.68 233.94 85.29 232.76 86.47 C 231.57 87.66 229.96 88.32 228.29 88.32 L 6.33 88.32 Z " fill="rgb(26,26,28)"/><path d=" M 125.087 6.533 C 125.735 7.03 126.498 7.27 127.256 7.27 C 128.33 7.27 129.392 6.788 130.097 5.87 L 130.192 5.746 C 131.391 4.178 131.094 1.936 129.526 0.737 C 127.96 -0.464 125.716 -0.165 124.516 1.401 L 124.421 1.525 C 123.222 3.092 123.519 5.334 125.087 6.533 Z " fill="rgb(26,26,28)"/><path d=" M 135.087 6.533 C 135.735 7.03 136.498 7.27 137.256 7.27 C 138.33 7.27 139.392 6.788 140.097 5.87 L 140.192 5.746 C 141.391 4.178 141.094 1.936 139.526 0.737 C 137.96 -0.464 135.716 -0.165 134.516 1.401 L 134.421 1.525 C 133.222 3.092 133.519 5.334 135.087 6.533 Z " fill="rgb(26,26,28)"/><path d=" M 145.087 6.533 C 145.735 7.03 146.498 7.27 147.256 7.27 C 148.33 7.27 149.392 6.788 150.097 5.87 L 150.192 5.746 C 151.391 4.178 151.094 1.936 149.526 0.737 C 147.96 -0.464 145.716 -0.165 144.516 1.401 L 144.421 1.525 C 143.222 3.092 143.519 5.334 145.087 6.533 Z " fill="rgb(26,26,28)"/><text transform="matrix(0.821,0,0,0.821,26.612,39.93)" style="font-family:'Passion One';font-weight:400;font-size:20px;font-style:normal;fill:#1a1a1c;stroke:none;">nome</text><text transform="matrix(0.821,0,0,0.821,26.612,25.25)" style="font-family:'Passion One';font-weight:400;font-size:12px;font-style:normal;fill:#1a1a1c;stroke:none;">twitter</text><text transform="matrix(0.821,0,0,0.821,26.612,50.435)" style="font-family:'Roboto';font-weight:400;font-size:11px;font-style:normal;fill:#1a1a1c;stroke:none;">texto texto texto texto texto texto texto texto </text><text transform="matrix(0.821,0,0,0.821,26.612,63.326)" style="font-family:'Roboto';font-weight:400;font-size:11px;font-style:normal;fill:#1a1a1c;stroke:none;">texto texto texto texto texto texto texto texto </text><text transform="matrix(0.821,0,0,0.821,26.612,76.216)" style="font-family:'Roboto';font-weight:400;font-size:11px;font-style:normal;fill:#1a1a1c;stroke:none;">texto texto texto texto texto texto texto texto </text></g></g></svg>