<?xml version="1.0" encoding="UTF-8" standalone="no"?><!-- Generator: Gravit.io --><svg xmlns="http://www.w3.org/2000/svg" xmlns:xlink="http://www.w3.org/1999/xlink" style="isolation:isolate" viewBox="0 0 64 27.266" width="64pt" height="27.266pt"><defs><clipPath id="_clipPath_l6B5abTG76PeTPwHXbJr6MGKL8CifPZl"><rect width="64" height="27.266"/></clipPath></defs><g clip-path="url(#_clipPath_l6B5abTG76PeTPwHXbJr6MGKL8CifPZl)"><path d=" M 37.874 19.11 C 38.487 20.513 39.327 21.795 40.391 22.936 C 45.52 28.436 54.168 28.737 59.668 23.609 C 65.169 18.479 65.471 9.832 60.342 4.331 C 55.213 -1.169 46.565 -1.472 41.064 3.658 C 39.924 4.721 38.995 5.941 38.287 7.298 L 6.116 6.174 C 4.543 6.119 3.039 6.683 1.882 7.761 C 0.725 8.84 0.059 10.3 0.004 11.874 C -0.051 13.448 0.512 14.952 1.591 16.108 C 2.669 17.266 4.131 17.932 5.704 17.987 L 37.874 19.11 L 37.874 19.11 Z " fill="rgb(26,26,28)"/><path d=" M 44.165 6.983 C 47.832 3.563 53.597 3.765 57.016 7.431 C 60.436 11.099 60.234 16.864 56.568 20.283 C 52.901 23.703 47.136 23.501 43.716 19.835 C 43.554 19.661 43.404 19.482 43.258 19.298 L 50.16 19.539 C 53.417 19.653 56.159 17.096 56.273 13.838 C 56.33 12.211 55.719 10.711 54.687 9.604 C 53.654 8.497 52.201 7.783 50.572 7.726 L 43.67 7.485 C 43.829 7.312 43.993 7.144 44.165 6.983 L 44.165 6.983 L 44.165 6.983 L 44.165 6.983 Z " fill="rgb(66,68,76)"/><path d=" M 5.958 10.717 L 50.414 12.27 C 51.153 12.296 51.755 12.941 51.729 13.681 C 51.704 14.419 51.058 15.022 50.318 14.996 L 5.862 13.444 C 5.502 13.431 5.166 13.276 4.915 13.007 C 4.665 12.739 4.534 12.394 4.547 12.033 C 4.559 11.673 4.714 11.336 4.982 11.087 C 5.251 10.836 5.597 10.705 5.958 10.717 L 5.958 10.717 L 5.958 10.717 L 5.958 10.717 Z " fill="rgb(255,255,255)"/></g></svg>