<?xml version="1.0" encoding="UTF-8" standalone="no"?><!-- Generator: Gravit.io --><svg xmlns="http://www.w3.org/2000/svg" xmlns:xlink="http://www.w3.org/1999/xlink" style="isolation:isolate" viewBox="0 0 68.902 42.908" width="68.902pt" height="42.908pt"><defs><clipPath id="_clipPath_z9nUauYORLtDqaKUnKOqUegr6SNmPSqO"><rect width="68.902" height="42.908"/></clipPath></defs><g clip-path="url(#_clipPath_z9nUauYORLtDqaKUnKOqUegr6SNmPSqO)"><g><rect x="20.818" y="-10.559" width="27.266" height="64.027" transform="matrix(0.259,-0.966,0.966,0.259,4.811,49.179)" fill="none"/><g><g><path d=" M 38.801 28.738 C 39.082 30.242 39.613 31.681 40.393 33.031 C 44.153 39.545 52.511 41.783 59.024 38.024 C 65.538 34.262 67.777 25.905 64.017 19.392 C 60.256 12.879 51.898 10.638 45.385 14.4 C 44.034 15.179 42.856 16.159 41.86 17.321 L 10.767 8.989 C 9.246 8.582 7.653 8.793 6.284 9.584 C 4.914 10.374 3.936 11.647 3.528 13.168 C 3.121 14.69 3.331 16.281 4.123 17.651 C 4.913 19.021 6.187 19.999 7.707 20.407 L 38.801 28.738 L 38.801 28.738 Z " fill="rgb(26,26,28)"/><path d=" M 47.659 18.336 C 52 15.83 57.573 17.323 60.079 21.664 C 62.586 26.007 61.093 31.58 56.751 34.086 C 52.409 36.593 46.837 35.1 44.33 30.758 C 44.211 30.552 44.105 30.344 44.004 30.132 L 50.675 31.92 C 53.823 32.763 57.07 30.889 57.914 27.74 C 58.336 26.168 58.078 24.568 57.321 23.258 C 56.564 21.946 55.308 20.924 53.734 20.502 L 47.064 18.714 C 47.256 18.582 47.454 18.454 47.659 18.336 L 47.659 18.336 L 47.659 18.336 L 47.659 18.336 Z " fill="rgb(66,68,76)"/><path d=" M 9.59 13.381 L 52.557 24.894 C 53.272 25.085 53.713 25.849 53.522 26.564 C 53.332 27.278 52.566 27.72 51.851 27.529 L 8.884 16.016 C 8.535 15.922 8.243 15.696 8.059 15.377 C 7.876 15.06 7.826 14.694 7.92 14.345 C 8.013 13.997 8.239 13.704 8.557 13.521 C 8.875 13.337 9.241 13.287 9.59 13.381 L 9.59 13.381 L 9.59 13.381 L 9.59 13.381 Z " fill="rgb(255,255,255)"/></g></g></g></g></svg>