<?xml version="1.0" encoding="UTF-8" standalone="no"?><!-- Generator: Gravit.io --><svg xmlns="http://www.w3.org/2000/svg" xmlns:xlink="http://www.w3.org/1999/xlink" style="isolation:isolate" viewBox="0 0 27.266 64.027" width="27.266pt" height="64.027pt"><defs><clipPath id="_clipPath_Gh8KOIgoRat3moxBhVZAfcdzRuPASaL4"><rect width="27.266" height="64.027"/></clipPath></defs><g clip-path="url(#_clipPath_Gh8KOIgoRat3moxBhVZAfcdzRuPASaL4)"><g><path d=" M 7.723 38.1 C 6.343 38.761 5.091 39.646 3.988 40.749 C -1.33 46.067 -1.329 54.72 3.988 60.038 C 9.307 65.356 17.959 65.356 23.277 60.038 C 28.595 54.72 28.596 46.067 23.277 40.749 C 22.175 39.646 20.923 38.761 19.543 38.1 L 19.543 5.91 C 19.543 4.336 18.927 2.852 17.809 1.734 C 16.691 0.615 15.208 0 13.633 0 C 12.058 0 10.575 0.615 9.457 1.734 C 8.338 2.852 7.723 4.336 7.723 5.91 L 7.723 38.1 L 7.723 38.1 Z " fill="rgb(26,26,28)"/><path d=" M 20.063 43.964 C 23.608 47.509 23.608 53.278 20.063 56.823 C 16.517 60.368 10.748 60.368 7.203 56.823 C 3.658 53.278 3.658 47.509 7.203 43.964 C 7.371 43.796 7.545 43.639 7.723 43.487 L 7.723 50.393 C 7.723 53.652 10.374 56.303 13.634 56.304 C 15.262 56.304 16.74 55.641 17.81 54.571 C 18.881 53.5 19.543 52.023 19.544 50.393 L 19.544 43.487 C 19.722 43.639 19.896 43.797 20.063 43.964 L 20.063 43.964 L 20.063 43.964 L 20.063 43.964 Z " fill="rgb(66,68,76)"/><path d=" M 14.997 5.91 L 14.997 50.393 C 14.997 51.133 14.373 51.757 13.633 51.757 C 12.894 51.758 12.269 51.133 12.269 50.393 L 12.269 5.91 C 12.269 5.549 12.412 5.208 12.672 4.948 C 12.931 4.689 13.272 4.546 13.633 4.546 C 13.993 4.546 14.335 4.689 14.594 4.948 C 14.854 5.208 14.997 5.549 14.997 5.91 L 14.997 5.91 L 14.997 5.91 L 14.997 5.91 Z " fill="rgb(255,255,255)"/></g></g></svg>