<?xml version="1.0" encoding="UTF-8" standalone="no"?><!-- Generator: Gravit.io --><svg xmlns="http://www.w3.org/2000/svg" xmlns:xlink="http://www.w3.org/1999/xlink" style="isolation:isolate" viewBox="0 0 55.876 52.323" width="55.876pt" height="52.323pt"><defs><clipPath id="_clipPath_DeDfXbbg7i3aclqv2mwu4hfCUQJa5ix8"><rect width="55.876" height="52.323"/></clipPath></defs><g clip-path="url(#_clipPath_DeDfXbbg7i3aclqv2mwu4hfCUQJa5ix8)"><g><path d=" M 16.224 7.66 L 24.517 22.026 C 26.608 20.816 29.272 20.816 31.361 22.028 L 39.654 7.664 C 39.902 7.233 39.74 6.686 39.302 6.455 C 35.91 4.658 32.042 3.64 27.937 3.64 C 23.833 3.64 19.966 4.657 16.576 6.453 C 16.138 6.684 15.976 7.23 16.224 7.66 Z " fill="rgb(66,68,76)"/><path d=" M 31.361 33.881 L 39.656 48.245 C 39.9 48.67 40.451 48.811 40.866 48.551 C 47.466 44.401 51.931 37.162 52.237 28.863 C 52.253 28.368 51.86 27.954 51.365 27.954 L 34.781 27.954 C 34.781 30.485 33.405 32.697 31.361 33.881 Z " fill="rgb(66,68,76)"/><path d=" M 3.639 28.861 C 3.945 37.163 8.409 44.402 15.012 48.553 C 15.427 48.815 15.978 48.672 16.224 48.247 L 24.517 33.883 C 22.47 32.7 21.095 30.489 21.095 27.954 L 4.509 27.954 C 4.013 27.954 3.621 28.368 3.639 28.861 L 3.639 28.861 Z " fill="rgb(66,68,76)"/><path d=" M 23.953 27.954 C 23.953 33.088 31.923 33.093 31.923 27.954 C 31.923 22.819 23.953 22.814 23.953 27.954 Z " fill="rgb(66,68,76)"/><path d=" M 13.075 51.634 C 5.229 46.7 0.342 38.238 0.003 28.995 C -0.042 27.776 0.418 26.573 1.263 25.696 C 2.109 24.819 3.293 24.314 4.509 24.314 L 18.115 24.314 C 18.529 23.207 19.123 22.177 19.877 21.267 L 13.072 9.479 C 12.465 8.425 12.308 7.15 12.645 5.98 C 12.982 4.807 13.794 3.808 14.874 3.236 C 18.87 1.119 23.387 0 27.937 0 C 32.487 0 37.006 1.121 41.006 3.24 C 42.086 3.811 42.897 4.811 43.234 5.984 C 43.571 7.153 43.415 8.429 42.806 9.483 L 36.001 21.27 C 36.753 22.181 37.347 23.21 37.758 24.316 L 51.365 24.316 C 52.583 24.316 53.765 24.819 54.61 25.696 C 55.458 26.573 55.918 27.778 55.873 28.995 C 55.532 38.236 50.647 46.698 42.802 51.632 C 42.084 52.085 41.246 52.321 40.404 52.321 C 40.043 52.321 39.68 52.276 39.326 52.189 C 38.144 51.897 37.114 51.122 36.504 50.064 L 29.7 38.282 C 28.533 38.482 27.347 38.482 26.177 38.284 L 19.374 50.068 C 18.765 51.124 17.736 51.898 16.551 52.191 C 16.198 52.28 15.837 52.323 15.475 52.323 C 14.634 52.321 13.796 52.087 13.075 51.634 Z  M 26.341 30.734 C 29.922 32.807 33.119 27.195 29.534 25.177 C 25.935 23.147 22.761 28.666 26.341 30.734 Z  M 27.937 7.278 C 25.5 7.278 23.146 7.688 20.91 8.5 L 26.176 17.621 C 27.337 17.424 28.542 17.424 29.704 17.621 L 34.969 8.501 C 32.731 7.688 30.376 7.278 27.937 7.278 L 27.937 7.278 Z  M 41.268 43.762 C 44.962 40.645 47.448 36.34 48.293 31.593 L 37.764 31.593 C 37.354 32.693 36.753 33.738 36.003 34.642 L 41.268 43.762 Z  M 19.875 34.646 C 19.125 33.739 18.521 32.697 18.112 31.593 L 7.581 31.593 C 8.428 36.342 10.914 40.649 14.61 43.764 L 19.875 34.646 Z " fill="rgb(26,26,28)"/></g></g></svg>