<?xml version="1.0" encoding="UTF-8" standalone="no"?><!-- Generator: Gravit.io --><svg xmlns="http://www.w3.org/2000/svg" xmlns:xlink="http://www.w3.org/1999/xlink" style="isolation:isolate" viewBox="0 0 376 436.418" width="376pt" height="436.418pt"><defs><clipPath id="_clipPath_DU3OQeKxou31xmGb0XiBMx1217zOEEWK"><rect width="376" height="436.418"/></clipPath></defs><g clip-path="url(#_clipPath_DU3OQeKxou31xmGb0XiBMx1217zOEEWK)"><path d=" M 301.5 0.242 C 306.886 -0.452 313.538 0.051 316 5.742 L 316 5.742 L 317 7.742 C 315.067 8.902 316.513 10.105 318 10.742 L 318 10.742 L 320 17.742 L 319 20.742 C 321.067 21.891 320.485 24.9 320 26.742 L 320 26.742 L 320 41.742 L 319 41.742 C 319.44 34.725 319.14 27.489 317 20.742 L 317 20.742 L 318 18.742 L 316 14.742 L 317 12.742 L 310.5 4.242 L 309 3.742 L 308.5 2.242 C 305.01 7.478 298.508 -0.443 296.5 4.242 L 296.5 4.242 L 292.5 5.242 L 291 4.742 L 290.5 6.242 L 277.5 12.242 L 277 9.742 C 284.18 4.51 292.792 1.628 301.5 0.242 L 301.5 0.242 Z  M 297.5 3.242 C 303.66 2.135 312.053 1.949 315 8.742 L 315 8.742 L 316 15.742 L 315 15.742 C 315.28 11.736 314.49 7.164 310.5 5.242 L 310.5 5.242 L 301.5 4.242 C 300.694 4.403 296.486 5.271 297.5 3.242 L 297.5 3.242 Z  M 296.5 4.242 Q 310.2 1.542 314 8.742 Q 320.237 32.505 317 65.742 Q 315.948 97.691 309.5 124.242 L 309 118.742 Q 315.93 83.172 315 39.742 Q 316.541 22.701 308.5 15.242 Q 275.83 19.072 259 38.742 Q 240.071 61.313 227.5 90.242 L 224.5 91.242 L 221.5 86.242 L 215.5 95.242 Q 208.625 96.117 207 91.742 Q 217.057 62.799 237.5 44.242 L 239 43.742 L 242.5 39.242 C 257.29 23.261 276.116 11.673 296.5 4.242 L 296.5 4.242 Z  M 13.5 7.242 L 22.5 8.242 L 24.5 7.242 C 29.738 13.106 37.352 15.844 45 16.742 L 45 16.742 L 45.5 18.242 L 57 24.742 L 57.5 26.242 L 68 32.742 L 70.5 36.242 L 77 41.742 L 77.5 43.242 L 82 45.742 L 82.5 47.242 L 84 47.742 L 84.5 51.242 L 86.5 50.242 L 93.5 58.242 L 95 58.742 L 95.5 60.242 L 97 60.742 L 101.5 67.242 L 103 67.742 C 109.15 75.039 113.953 83.398 117.5 92.242 L 117.5 92.242 L 119.5 93.242 C 125.558 86.495 135.581 85.925 144 86.742 L 144 86.742 L 142 85.742 L 145 84.742 L 144 82.742 L 146.5 82.242 L 150 81.742 L 150.5 80.242 C 153.13 79.56 157.4 78.771 159 81.742 L 159 81.742 L 158.5 83.242 L 154.5 81.242 L 153 84.742 C 153.615 86.096 154.617 86.831 155.5 85.242 L 155.5 85.242 L 158 86.742 L 157.5 89.242 L 156.5 86.242 L 154.5 87.242 L 150.5 84.242 C 145.847 91.632 132.968 86.921 125.87 89.674 C 123.396 90.634 121.162 92.163 119.5 94.242 L 119.5 94.242 L 118 93.742 L 118.5 95.242 L 120 95.742 L 118.5 96.242 L 114.5 93.242 L 113 93.742 L 112 89.742 L 113 89.742 L 113.5 91.242 L 114 88.742 L 111.5 84.242 L 110.5 86.242 C 101.164 68.46 88.322 52.649 72.5 40.242 L 72.5 40.242 L 46 20.742 L 45.5 19.242 L 43.5 19.242 L 37 15.742 L 36.5 14.242 L 34.5 14.242 L 27 11.742 L 26.5 10.242 L 24.5 11.242 L 23.5 9.242 L 18.5 10.242 L 16.5 9.242 L 9 11.742 C 6.2 14.916 4.928 19.101 4.5 23.242 L 4.5 23.242 L 3 23.742 L 4 28.742 L 1.5 33.242 L 0 28.742 C 0.421 21.679 2.381 14.374 7.5 9.242 L 7.5 9.242 L 13.5 7.242 Z  M 282.5 9.242 L 281.5 11.242 L 275.5 14.242 L 276.5 12.242 L 282.5 9.242 Z  M 11.5 10.242 L 14 10.742 L 8 14.742 L 6.5 18.242 L 6 16.742 L 9.5 11.242 L 11.5 10.242 Z  M 14.5 10.242 Q 68.125 23.617 95 63.742 Q 112.028 75.214 112 103.742 Q 108.994 115.236 101.5 122.242 L 99 121.742 Q 88.423 73.82 58.5 45.242 Q 41.339 26.903 11.5 21.242 L 7 24.742 C 2.917 39.125 2.982 54.491 4.5 69.242 L 4.5 69.242 L 4 28.742 C 4.297 22.225 6.21 15.46 11.5 11.242 L 11.5 11.242 L 14.5 10.242 Z  M 275.5 10.242 L 276 12.742 L 260 22.742 L 257.5 26.242 L 233 47.742 L 227.5 54.242 L 226 54.742 L 224.5 58.242 L 223 58.742 C 223.249 60.736 222.772 62.864 220.5 63.242 L 220.5 63.242 L 214.5 73.242 L 213 73.742 L 206 91.742 L 206.5 93.242 C 203.102 90.567 198.741 89.511 194.5 89.242 L 194.5 89.242 L 191.5 90.242 L 189 88.742 L 189.5 86.242 L 195.5 88.242 L 197.5 88.242 L 203.5 89.242 L 210.5 75.242 L 212 74.742 L 211 72.742 L 213 71.742 L 217 62.742 L 216.5 61.242 L 218.5 62.242 L 220 59.742 L 219.5 58.242 C 221.467 61.084 223.237 57.693 224 55.742 L 224 55.742 L 226 52.742 L 225.5 51.242 C 226.932 53.492 228.334 51.361 229 49.742 L 229 49.742 L 238.5 38.242 L 240 37.742 L 240.5 36.242 L 243.5 34.242 L 245.5 35.242 L 246 32.742 L 246.5 31.242 L 250 28.742 L 249.5 27.242 L 251.5 28.242 L 252.5 26.242 L 266 16.742 L 266.5 15.242 L 275.5 10.242 Z  M 33.5 14.242 L 42 18.742 L 40.5 18.242 C 38.464 18.031 32.783 17.518 33.5 14.242 L 33.5 14.242 Z  M 301.5 15.242 C 305.296 14.483 310.529 14.33 312 18.742 L 312 18.742 L 311.5 20.242 L 308.5 16.242 L 297.5 17.242 L 297.5 16.242 L 301.5 15.242 Z  M 301.5 16.242 L 304 16.742 L 293.5 20.242 L 293 18.742 L 301.5 16.242 Z  M 306.5 16.242 C 308.494 15.993 310.621 16.47 311 18.742 L 311 18.742 L 312 21.742 L 310 20.742 L 307.5 17.242 L 306.5 16.242 Z  M 293.5 17.242 L 296 17.742 L 289.5 20.242 L 289.5 19.242 L 293.5 17.242 Z  M 302.5 17.242 C 305.182 16.706 308.942 16.569 310 19.742 L 310 19.742 L 311 25.742 L 310 25.742 Q 310.833 19.909 307.5 18.242 Q 301.5 19.492 302.5 17.242 Z  M 267.5 18.242 L 265.5 21.242 L 253.5 30.242 L 256.5 26.242 L 267.5 18.242 Z  M 301.5 18.242 Q 307.5 16.742 309 19.742 Q 314.645 35.597 312 59.742 Q 314.064 134.307 284.5 177.242 Q 278.321 184.064 267.5 186.242 Q 264.499 170.744 255 161.742 L 257.5 154.242 L 264 157.742 L 266.5 163.242 L 268 162.742 L 270.5 157.242 L 277.5 156.242 C 278.648 158.309 281.658 157.727 283.5 157.242 L 283.5 157.242 L 285 153.742 C 282.25 153.684 278.085 152.752 277 149.742 C 275.719 146.191 274.637 139.742 278.5 137.242 L 278.5 137.242 L 285.5 139.242 L 286 136.742 L 281 132.742 L 291 124.742 L 289.5 122.242 C 288.509 126.405 284.154 126.832 280.5 126.242 L 280.5 126.242 L 281 124.742 L 284 117.742 L 281.5 117.242 L 278.5 122.242 L 277 121.742 C 276.599 117.665 277.301 112.965 281.5 111.242 L 281.5 111.242 L 283 110.742 C 286.621 109.247 287.295 105.238 287 101.742 L 287 101.742 L 285.5 101.242 L 281.5 107.242 L 276.5 109.242 L 276 104.742 C 277.991 93.986 282.144 83.48 289.5 75.242 L 289.5 75.242 L 291.5 78.242 L 294 76.742 L 293 71.742 C 293.665 65.569 296.342 59.752 302 56.742 L 302 56.742 L 300.5 57.242 L 294.5 61.242 L 294 59.742 L 300.5 48.242 L 303 46.742 L 307 39.742 C 303.577 35.135 300.449 40.343 299 43.742 L 299 43.742 L 298.5 38.242 L 296 39.742 C 296.249 41.736 295.772 43.864 293.5 44.242 L 293.5 44.242 L 285.5 55.242 L 284 54.742 L 282.5 51.242 L 281 51.742 Q 279.729 60.971 273.5 65.242 Q 262.066 64.808 257 70.742 L 257.5 72.242 C 260.987 71.603 265.794 71.306 268 74.742 L 268 74.742 L 262.5 81.242 L 250 87.742 L 250.5 90.242 L 254.5 89.242 L 255 91.742 L 253 94.742 L 255.5 95.242 L 258 93.742 L 259 97.742 C 256.685 100.984 252.839 102.393 249 102.742 L 249 102.742 L 249.5 104.242 L 255 105.742 C 251.763 111.002 245.116 111.731 239.5 111.242 L 239.5 111.242 L 236 108.742 Q 238.6 107.342 238 102.742 Q 233 100.742 236 98.742 L 234.5 96.242 L 233 95.742 C 240.515 62.546 259.612 32.73 292.607 20.975 C 295.53 19.934 298.5 19.027 301.5 18.242 L 301.5 18.242 Z  M 291.5 19.242 L 292 20.742 L 286.5 23.242 L 286 21.742 L 291.5 19.242 Z  M 16.5 22.242 C 20.69 22.395 25.101 23.508 28 26.742 L 28 26.742 L 26.5 26.242 C 23.362 26.373 17.211 26.464 16.5 22.242 L 16.5 22.242 Z  M 284.5 22.242 L 285 23.742 L 282.5 25.242 L 281 24.742 L 280.5 26.242 L 272.5 30.242 L 274.5 27.242 L 284.5 22.242 Z  M 23.5 23.242 L 29 25.742 L 27 26.742 L 34 30.742 L 32.5 30.242 L 22 25.742 L 23.5 25.242 L 26.5 26.242 L 26.5 25.242 C 25.466 25.173 22.777 24.93 23.5 23.242 L 23.5 23.242 Z  M 11.5 24.242 Q 45.572 30.67 63 53.742 Q 78.605 69.638 86 93.742 L 85 95.742 C 87.067 96.891 86.485 99.9 86 101.742 L 86 101.742 L 82 104.742 L 83 108.742 L 79 111.742 L 80.5 114.242 C 77.57 117.591 72.579 117.722 68.5 117.242 L 68.5 117.242 L 65 115.742 L 71 114.742 L 69.5 112.242 C 66.062 112.258 62.321 111.501 60 108.742 L 60 108.742 L 57 99.742 L 58.5 99.242 L 62.5 100.242 L 64.5 97.242 L 69.5 98.242 L 70 95.742 L 56 86.742 L 52 79.742 L 55.5 78.242 L 65.5 80.242 L 67 77.742 C 57.697 77.751 48.133 74.797 44 65.742 L 44 65.742 L 42.5 61.242 L 40 62.742 L 39.5 64.242 L 34.5 56.242 L 32 56.742 L 34 61.742 L 32.5 62.242 L 31.5 60.242 L 29 58.742 L 21.5 46.242 L 19 47.742 L 17 52.742 Q 23.352 57.89 25 67.742 Q 22.5 62.957 20 66.742 Q 22.25 74.492 27.5 79.242 L 29 79.742 C 37.251 88.646 40.346 100.907 41 112.742 L 41 112.742 L 37.5 113.242 L 34.5 109.242 L 32 109.742 C 37.642 113.301 40.804 119.276 42 125.742 L 42 125.742 L 39.5 126.242 L 34.5 123.242 L 33 125.742 L 41 134.742 L 38.5 135.242 L 32.5 131.242 Q 27.75 134.492 36 137.742 Q 36.8 143.042 34 144.742 Q 39.375 143.867 41 146.742 L 42 148.742 L 39 154.742 L 41 155.742 L 32 161.742 L 38.5 164.242 C 39.648 162.175 42.658 162.758 44.5 163.242 L 44.5 163.242 L 54.5 169.242 L 56 166.742 L 52 163.742 L 54.5 163.242 L 58.5 165.242 L 59.5 160.242 L 62 161.742 L 63 166.742 Q 55.963 172.205 57.5 186.242 Q 43.424 185.819 37 177.742 L 33.5 173.242 L 32 172.742 Q 2.421 120.822 8 33.742 Q 7.97 27.213 11.5 24.242 Z  M 281.5 25.242 L 280.5 27.242 L 270.5 33.242 L 271.5 30.242 L 268 32.742 C 272.485 36.283 265.212 39.25 262.5 40.242 L 262.5 40.242 L 260.5 39.242 L 249.5 52.242 L 251 49.742 L 259.5 38.242 L 273.5 27.242 L 272.5 30.242 L 281.5 25.242 Z  M 29.5 26.242 L 37 30.742 L 36.5 32.242 L 29 27.742 L 29.5 26.242 Z  M 54.5 26.242 C 69.808 36.976 83.795 49.576 96 63.742 L 96 63.742 L 105 75.742 L 102 73.742 C 94.639 62.072 84.987 50.115 73.5 42.242 C 66.419 37.389 58.983 34.024 54.5 26.242 L 54.5 26.242 Z  M 317.5 27.242 L 318 61.742 L 317 61.742 L 317.5 27.242 Z  M 34.5 28.242 L 43 33.742 L 41.5 33.242 L 40 33.742 L 45 37.742 L 42.5 36.242 L 37 32.742 L 38.5 33.242 L 40 32.742 C 37.743 32.069 35.001 30.823 34.5 28.242 L 34.5 28.242 Z  M 311.5 28.242 L 312 39.742 L 311 39.742 L 311.5 28.242 Z  M 3.5 29.242 L 4 66.742 L 3 66.742 L 3.5 29.242 Z  M 7.5 30.242 L 8 34.742 L 6.5 40.242 L 6 32.742 L 7.5 30.242 Z  M 270.5 30.242 L 271 31.742 L 262.5 39.242 L 262 37.742 L 270.5 30.242 Z  M 250.5 31.242 L 243.5 39.242 L 250.5 31.242 Z  M 318.5 31.242 L 319 58.742 L 318 58.742 L 318.5 31.242 Z  M 312.5 32.242 C 314.986 34.618 314.587 38.697 314 41.742 L 314 41.742 L 314 65.742 L 312.5 70.242 L 312.5 32.242 Z  M 5.5 33.242 C 4.369 69.924 6.713 107.12 16 142.742 L 16 142.742 L 15 142.742 Q 5.695 110.047 4 69.742 Q 7.25 67.492 5 59.742 L 5.5 33.242 Z  M 40.5 33.242 C 48.1 37.285 55.08 42.484 61 48.742 L 61 48.742 L 61.5 50.242 L 65 52.742 L 77 68.742 L 75.5 69.242 L 57.5 46.242 L 56 46.742 L 55.5 45.242 C 49.696 42.937 42.947 39.433 40.5 33.242 L 40.5 33.242 Z  M 1.5 34.242 C 5.299 40.923 4.378 49.56 3 56.742 L 3 56.742 L 1 57.742 L 2 54.742 L 1 54.742 L 0.5 56.242 L 0 37.742 L 1.5 34.242 Z  M 44.5 34.242 L 57 44.742 L 54.5 46.242 L 46 38.742 L 49.5 41.242 L 55.5 45.242 L 51.5 40.242 C 48.591 39.127 45.648 37.293 44.5 34.242 L 44.5 34.242 Z  M 7.5 35.242 L 8 73.742 L 7 73.742 L 7.5 35.242 Z  M 305.5 38.242 L 307 40.742 L 305 41.742 L 306 39.742 L 299 44.742 L 305.5 38.242 Z  M 241.5 39.242 L 239 42.742 L 238.5 44.242 L 233.5 48.242 L 241.5 39.242 Z  M 297.5 39.242 L 299 39.742 L 298 42.742 L 298.5 44.242 L 296.5 43.242 L 294.5 44.242 L 294.5 43.242 L 297 41.742 L 297.5 39.242 Z  M 305.5 39.242 L 306 40.742 L 304.5 43.242 C 302.743 40.816 300.971 42.754 300 44.742 L 300 44.742 L 305.5 39.242 Z  M 314.5 39.242 L 315 60.742 L 314 60.742 L 314.5 39.242 Z  M 259.5 40.242 L 261 40.742 L 253.5 49.242 L 252 48.742 L 259.5 40.242 Z  M 260.5 41.242 L 256.5 46.242 L 260.5 41.242 Z  M 6.5 42.242 C 6.017 64.803 7.167 87.481 11 109.742 L 11 109.742 L 10 109.742 C 5.507 87.578 4.89 64.75 6.5 42.242 L 6.5 42.242 Z  M 293.5 44.242 L 292 46.742 L 289.5 51.242 L 290 49.742 L 293.5 44.242 Z  M 58.5 45.242 L 64.5 52.242 L 61.5 50.242 L 64.5 54.242 C 68.041 49.757 71.008 57.03 72 59.742 L 72 59.742 L 74 62.742 L 70 59.742 L 65.5 54.242 L 65 55.742 L 68.5 60.242 L 57 47.742 L 61 49.742 L 58.5 45.242 Z  M 299.5 48.242 L 300 49.742 L 295.5 56.242 L 295 54.742 L 299.5 48.242 Z  M 232.5 49.242 L 228 54.742 L 223.5 60.242 L 226 56.742 L 232.5 49.242 Z  M 251.5 50.242 L 253 50.742 L 249.5 55.242 L 248 54.742 L 251.5 50.242 Z  M 252.5 51.242 L 251 53.742 L 243.5 66.242 L 244 64.742 L 248 56.742 L 246 57.742 L 240.5 67.242 L 241 65.742 L 248.5 53.242 L 248 54.742 L 248.5 56.242 L 252.5 51.242 Z  M 282.5 52.242 L 282 53.742 L 282.5 55.242 L 284 54.742 L 282.5 57.242 L 281 53.742 L 282.5 52.242 Z  M 295.5 53.242 L 295 54.742 L 293.5 62.242 L 293 57.742 L 295.5 53.242 Z  M 280.5 54.242 L 281 56.742 L 276.5 62.242 L 279 58.742 L 280.5 54.242 Z  M 247.5 56.242 L 248 57.742 L 243.5 65.242 L 242 64.742 L 247.5 56.242 Z  M 301.5 56.242 L 302 58.742 L 294 65.742 C 298.474 64.44 300.95 60.791 301.5 56.242 L 301.5 56.242 Z  M 2.5 57.242 L 3 65.742 L 2 65.742 L 2.5 57.242 Z  M 33.5 57.242 L 35 57.742 Q 35.35 62.892 39 64.742 Q 36 68.528 33 63.742 L 34.5 64.242 L 36 63.742 L 33.5 57.242 Z  M 299.5 57.242 L 294.5 63.242 L 293 62.742 L 299.5 57.242 Z  M 300.5 57.242 L 301 58.742 C 299.779 61.948 296.614 68.712 293 63.742 L 293 63.742 L 300.5 57.242 Z  M 319.5 58.242 L 320 69.742 L 318.5 73.242 C 315.833 70.575 316.332 66.085 317 62.742 L 317 62.742 L 319.5 58.242 Z  M 29.5 59.242 L 32 60.742 L 32.5 62.242 L 34.5 61.242 L 36 63.742 L 34.5 64.242 L 29.5 59.242 Z  M 1.5 60.242 C 3.933 63.487 4.26 67.837 4 71.742 L 4 71.742 L 3 76.742 C 6.087 78.065 5.609 82.101 5 84.742 L 5 84.742 L 5 86.742 L 6 92.742 L 5 94.742 C 7.25 95.356 7.337 97.833 7 99.742 L 7 99.742 L 9.5 116.242 L 10.5 111.242 C 12.909 114.114 13.24 118.156 13 121.742 L 13 121.742 L 11 122.742 L 11.5 127.242 L 12.5 123.242 L 14 127.742 L 12 127.742 L 12.5 132.242 L 13.5 130.242 L 15 130.742 L 14.5 132.242 L 13 132.742 L 13.5 136.242 L 14.5 134.242 L 16 134.742 L 15.5 137.242 L 14 136.742 L 13 139.742 L 14.5 140.242 L 15.5 138.242 L 22 155.742 L 21 157.742 L 22.5 160.242 L 24 160.742 L 26 164.742 L 25.5 166.242 L 28 167.742 C 31.291 169.251 31.991 172.592 32.113 175.88 C 32.226 178.942 29.452 180.621 29.734 184.227 C 30.252 190.853 31.913 199.241 36.5 204.242 L 36.5 204.242 L 38 204.742 L 37.5 206.242 L 39 206.742 L 35 208.742 C 29.54 214.099 29.237 222.635 30 229.742 L 30 229.742 L 31.5 233.242 L 34.5 232.242 L 35 233.742 C 31.672 236.119 33.057 241.535 34 244.742 L 34 244.742 L 37.5 254.242 L 39 253.742 L 42.5 249.242 L 43.5 251.242 L 45 250.742 L 45 252.742 L 46 261.742 L 45.5 263.242 L 47 263.742 L 50.5 269.242 L 51.5 267.242 L 53 266.742 L 52 264.742 L 53.5 262.242 L 56 262.742 C 53.848 263.901 53.721 266.603 54 268.742 L 54 268.742 L 56.5 269.242 L 56.5 268.242 L 55 267.742 L 55.5 266.242 L 57 266.742 L 60 272.742 L 58.5 273.242 L 56 271.742 L 55.5 270.242 L 54.5 273.242 C 51.798 273.55 48.582 273.147 47.5 270.242 L 47.5 270.242 L 46 270.742 L 47 268.742 L 43 263.742 L 43 259.742 L 42.5 256.242 L 40.5 260.242 L 35 255.742 C 31.153 249.386 30.864 241.437 31.5 234.242 L 31.5 234.242 L 28 232.742 Q 25.667 212.909 35 204.742 Q 28.847 198.395 30 184.742 Q 31.731 172.012 25 167.742 Q 17.416 159.826 14 147.742 L 17 146.742 L 16.5 144.242 L 15.5 146.242 L 13 145.742 L 8 122.742 L 8 120.742 L 7 114.742 L 8 112.742 L 6 112.742 C 5.515 110.9 4.933 107.891 7 106.742 L 7 106.742 L 5 105.742 C 1.181 90.922 0.31 75.465 1.5 60.242 L 1.5 60.242 Z  M 36.5 60.242 L 39.5 64.242 L 41.5 61.242 L 43 61.742 L 44 64.742 L 43 64.742 L 41.5 62.242 L 41 63.742 L 42 65.742 L 40.5 66.242 C 37.463 65.437 34.899 63.539 36.5 60.242 L 36.5 60.242 Z  M 311.5 60.242 L 312 78.742 L 311 78.742 L 311.5 60.242 Z  M 222.5 61.242 L 221 63.742 L 217.5 69.242 L 218 67.742 L 222.5 61.242 Z  M 41.5 62.242 C 46.276 72.604 54.576 78.528 66 77.742 L 66 77.742 L 65.5 79.242 L 53.5 78.242 L 50.5 80.242 L 52 77.742 C 52.289 71.962 49.589 67.581 43.5 67.242 L 43.5 67.242 L 41 66.742 L 42 64.742 L 41.5 62.242 Z  M 74.5 64.242 L 79 70.742 L 77 69.742 L 75.5 67.242 L 75 68.742 L 75.5 70.242 L 72 65.742 L 75 66.742 L 74.5 64.242 Z  M 21.5 65.242 L 26 68.742 L 25.5 71.242 L 21.5 66.242 L 20.5 68.242 L 20 66.742 L 21.5 65.242 Z  M 44.5 66.242 L 52.5 75.242 L 44.5 66.242 Z  M 242.5 66.242 L 241 68.742 L 238.5 74.242 L 237 73.742 L 240.5 67.242 L 242.5 66.242 Z  M 313.5 66.242 L 314 80.742 L 313 80.742 L 313.5 66.242 Z  M 316.5 66.242 L 317 78.742 L 316 78.742 L 316.5 66.242 Z  M 242.5 67.242 L 242 68.742 L 235.5 82.242 L 235 80.742 L 242.5 67.242 Z  M 266.5 68.242 L 265.5 71.242 L 267.5 70.242 L 268.5 74.242 C 266.714 71.325 263.177 70.629 260 70.742 L 260 70.742 L 266.5 68.242 Z  M 258.5 69.242 L 262 69.742 L 258 70.742 C 262.003 70.38 266.773 70.905 269 74.742 L 269 74.742 L 266.5 73.242 L 257 71.742 L 258.5 69.242 Z  M 216.5 70.242 L 216 71.742 L 208.5 86.242 L 208 84.742 L 216.5 70.242 Z  M 76.5 71.242 L 80 76.742 L 78 75.742 L 76.5 71.242 Z  M 80.5 74.242 L 85 82.742 L 84 82.742 L 80.5 74.242 Z  M 318.5 74.242 L 319 82.742 C 319.557 96.261 318.31 110.539 312 122.742 L 312 122.742 L 313 125.742 L 311 131.742 C 312.933 132.902 311.487 134.105 310 134.742 L 310 134.742 L 309.5 138.242 L 307 136.742 C 308.487 136.105 309.933 134.902 308 133.742 L 308 133.742 L 312 115.742 Q 310.972 108.215 315 105.742 Q 312.75 104.492 314 99.742 L 316 96.742 C 313.933 95.594 314.515 92.584 315 90.742 L 315 90.742 L 317 85.742 C 314.933 84.594 315.515 81.584 316 79.742 L 316 79.742 L 318.5 74.242 Z  M 236.5 75.242 L 238 75.742 L 234.5 81.242 L 234 79.742 L 236.5 75.242 Z  M 8.5 76.242 L 9 86.742 L 8 86.742 L 8.5 76.242 Z  M 267.5 76.242 L 262.5 82.242 L 258.5 84.242 L 259.5 82.242 C 262.961 81.49 265.958 79.498 267.5 76.242 L 267.5 76.242 Z  M 312.5 76.242 L 313 83.742 L 311.5 86.242 L 311 79.742 L 312.5 76.242 Z  M 80.5 77.242 L 82 77.742 L 85 83.742 L 83.5 84.242 L 80.5 77.242 Z  M 162.5 77.242 L 167 80.742 L 167.5 83.242 L 171 82.742 L 172.5 79.242 L 173 82.742 L 171 83.742 L 168.5 87.242 L 164.5 82.242 L 163 84.742 L 163.5 86.242 L 160 83.742 L 162.5 77.242 Z  M 80.5 78.242 L 85 87.742 L 84 87.742 C 80.787 85.447 78.818 82.088 80.5 78.242 L 80.5 78.242 Z  M 177.5 79.242 C 181.323 78.663 186.216 78.53 189 81.742 L 189 81.742 L 187.5 85.242 L 185.5 84.242 L 184.5 86.242 L 188 86.742 L 187.5 88.242 L 179.5 89.242 L 179.5 86.242 L 185 82.742 L 174 80.742 L 177.5 79.242 Z  M 29.5 80.242 L 31 80.742 L 34 85.742 L 32 84.742 L 29.5 80.242 Z  M 233.5 80.242 L 234 81.742 L 228.5 90.242 L 230 87.742 L 233.5 80.242 Z  M 310.5 81.242 L 311 90.742 L 310 90.742 L 310.5 81.242 Z  M 315.5 81.242 L 316 89.742 L 315 89.742 L 315.5 81.242 Z  M 152.5 82.242 L 155.5 86.242 L 158 87.742 L 156.5 87.242 L 153 84.742 L 152.5 82.242 Z  M 164.5 82.242 L 167.5 87.242 L 173.5 82.242 L 174 83.742 L 172.5 87.242 L 171.5 85.242 C 171.129 87.837 168.806 88.498 166.5 88.242 L 166.5 88.242 L 165.5 84.242 L 164.5 87.242 L 161 84.742 L 164 85.742 L 164.5 82.242 Z  M 174.5 82.242 L 175.5 84.242 L 177 83.742 L 173.5 88.242 L 172 87.742 L 174.5 82.242 Z  M 177.5 82.242 L 181 82.742 C 178.095 82.98 175.496 84.371 174.5 87.242 L 174.5 87.242 L 177 83.742 L 177.5 82.242 Z  M 181.5 82.242 L 182.5 84.242 L 178 86.742 L 178.5 89.242 L 181.5 90.242 C 182.894 87.919 186.39 88.667 188.5 89.242 L 188.5 89.242 L 187.5 91.242 C 181.817 97.711 169.07 101.799 160.955 98.287 C 155.442 95.901 150.342 92.942 146 88.742 L 146 88.742 L 147.5 86.242 L 151.5 85.242 C 152.289 88.566 155.437 89.471 158.5 89.242 L 158.5 89.242 L 159 87.742 L 156 83.742 L 157.5 83.242 L 164.5 87.242 L 165.5 84.242 L 166.5 88.242 C 168.806 88.498 171.129 87.837 171.5 85.242 L 171.5 85.242 L 172.5 89.242 L 174 88.742 L 178.5 83.242 L 181.5 82.242 Z  M 53.5 83.242 L 56.5 87.242 L 61 90.742 L 57.5 88.242 L 54 85.742 L 53.5 83.242 Z  M 283.5 83.242 L 283 84.742 L 279.5 93.242 L 279 90.742 L 283.5 83.242 Z  M 111.5 84.242 L 114 90.742 L 113 90.742 C 110.988 89.066 110.604 86.631 111.5 84.242 L 111.5 84.242 Z  M 257.5 84.242 L 256.5 86.242 L 253 87.742 L 253.5 89.242 L 250.5 90.242 L 253.5 86.242 L 257.5 84.242 Z  M 312.5 84.242 L 313 92.742 L 312 92.742 L 312.5 84.242 Z  M 84.5 85.242 L 86 85.742 L 88 90.742 L 86.5 98.242 L 85 90.742 L 85 88.742 L 84.5 85.242 Z  M 221.5 86.242 L 224 90.742 L 222 89.742 L 221.5 87.242 L 215.5 96.242 L 212 95.742 C 219.766 96.053 216.321 89.031 221.5 86.242 L 221.5 86.242 Z  M 9.5 88.242 L 10 96.742 L 9 96.742 L 9.5 88.242 Z  M 183.5 88.242 C 185.608 87.74 188.887 87.294 190 89.742 L 190 89.742 L 188 90.742 L 188.5 89.242 C 187.621 89.425 182.469 90.563 183.5 88.242 L 183.5 88.242 Z  M 232.5 88.242 L 233.5 96.242 L 236 97.742 L 235 99.742 C 237.919 100.326 238.361 103.218 238 105.742 L 238 105.742 L 236 108.742 L 239 110.742 L 237.5 111.242 L 235 107.742 C 237.25 107.129 237.337 104.651 237 102.742 L 237 102.742 L 233 99.742 L 235 98.742 L 234.5 97.242 L 232 95.742 L 232.5 88.242 Z  M 146.5 89.242 L 151 92.742 L 149 93.742 L 149.5 92.242 L 146.5 89.242 Z  M 256.5 89.242 L 257 90.742 L 256.5 92.242 L 258.5 91.242 L 257.5 93.242 L 254.5 94.242 L 255 92.742 L 256.5 89.242 Z  M 311.5 89.242 L 312 94.742 L 310.5 98.242 L 310 91.742 L 311.5 89.242 Z  M 59.5 90.242 L 64 92.742 L 61.5 94.242 L 61.5 92.242 L 59.5 90.242 Z  M 222.5 90.242 L 226.5 91.242 L 228 90.742 C 226.4 93.714 222.13 92.924 219.5 92.242 L 219.5 92.242 L 219.5 91.242 L 222.5 90.242 Z  M 89.5 93.242 L 92 99.742 L 91 99.742 L 89.5 93.242 Z  M 62.5 96.242 L 67 96.742 L 64 97.742 L 62.5 100.242 L 59 99.742 L 63 98.742 L 62.5 96.242 Z  M 285.5 101.242 L 287 101.742 L 285 102.742 L 284 105.742 L 286 104.742 L 286.5 103.242 L 287 104.742 L 282.5 111.242 L 280 112.742 L 278.5 115.242 L 279 113.742 L 284 106.742 L 283 104.742 L 285.5 101.242 Z  M 85.5 102.242 L 84.5 104.242 L 83 104.742 L 83.5 106.242 L 85 106.742 L 82.5 110.242 L 80 111.742 L 82 112.742 L 81.5 114.242 C 78.428 112.706 78.428 110.778 81.5 109.242 L 81.5 109.242 L 83 108.742 L 82 104.742 L 85.5 102.242 Z  M 251.5 104.242 C 253.109 103.92 255.365 103.839 256 105.742 L 256 105.742 L 252 108.742 L 254.5 105.242 C 253.739 105.385 250.517 105.963 251.5 104.242 L 251.5 104.242 Z  M 58.5 105.242 L 61.5 110.242 L 63 110.742 L 61.5 111.242 C 58.899 110.156 57.107 108.074 58.5 105.242 L 58.5 105.242 Z  M 282.5 106.242 L 283 108.742 L 280 109.742 L 280.5 111.242 L 278 110.742 L 282.5 106.242 Z  M 312.5 108.242 L 313 113.742 L 311.5 119.242 L 311 114.742 L 312.5 108.242 Z  M 32.5 109.242 L 36 110.742 L 37 112.742 L 35 112.742 L 35.5 114.242 L 37 114.742 L 39 117.742 L 34 113.742 L 32.5 109.242 Z  M 33.5 110.242 L 35 110.742 L 36.5 113.242 L 39 114.742 L 37 115.742 L 37.5 114.242 L 35 113.742 L 33.5 110.242 Z  M 67.5 112.242 L 71 113.742 L 70.5 115.242 L 65 115.742 L 68 116.742 L 65.5 117.242 L 63 115.742 L 63.5 114.242 L 70 113.742 C 69.125 113.764 66.708 113.747 67.5 112.242 L 67.5 112.242 Z  M 308.5 115.242 L 309 118.742 C 308.576 127.854 306.854 137.137 302.5 145.242 L 302.5 145.242 L 302 142.742 C 304.883 136.871 305.756 130.499 305.937 124.055 C 306.025 120.941 306.42 117.722 308.5 115.242 L 308.5 115.242 Z  M 306.5 118.242 L 307 123.742 L 305.5 129.242 L 305 124.742 L 306.5 118.242 Z  M 97.5 119.242 L 99.5 122.242 L 102.5 121.242 L 101.5 123.242 L 98 121.742 L 97.5 119.242 Z  M 281.5 119.242 L 283 119.742 L 281.5 122.242 C 279.801 119.694 278.2 122.492 277.5 124.242 L 277.5 124.242 L 275 122.742 L 276.5 123.242 L 281.5 119.242 Z  M 308.5 119.242 L 309.5 124.242 L 310.5 120.242 L 311 123.742 L 309.5 128.242 L 308.5 125.242 L 308 128.742 L 309 131.742 L 308 131.742 L 307.5 130.242 L 307 132.742 L 308 135.742 L 303.5 148.242 L 303 144.742 C 306.697 136.788 308.16 127.95 308.5 119.242 L 308.5 119.242 Z  M 158.5 122.242 L 163 125.742 L 160.5 124.242 L 158.5 123.242 L 157.5 138.242 L 157 123.742 L 158.5 122.242 Z  M 281.5 122.242 L 281 123.742 L 280 125.742 L 285 126.742 L 279.5 127.242 L 279 124.742 L 281.5 122.242 Z  M 289.5 122.242 L 291 124.742 L 287 127.742 L 290 123.742 L 286 125.742 L 289.5 122.242 Z  M 34.5 123.242 L 42 126.742 L 39.5 127.242 L 34.5 124.242 L 34 125.742 L 37 129.742 L 35 128.742 L 33 124.742 L 34.5 123.242 Z  M 158.5 123.242 L 163 126.742 C 163.08 136.208 165.504 146.331 173.5 152.242 L 173.5 152.242 L 182 157.742 Q 185.375 163.867 184 174.742 Q 182.242 189.984 176 200.742 Q 169.667 213.909 172 235.742 Q 180.2 256.042 177 287.742 Q 175.75 290.492 174.5 288.242 Q 167.125 289.117 163 286.742 L 164 250.742 Q 154.795 200.448 157 138.742 Q 161.717 134.959 158.5 123.242 Z  M 289.5 123.242 L 290 124.742 L 287 126.742 L 286.5 128.242 L 281.5 131.242 L 282.5 129.242 L 285 127.742 L 285.5 126.242 L 289.5 123.242 Z  M 32.5 131.242 Q 30.667 134.242 35.5 137.242 Q 28 134.242 32.5 131.242 Z  M 32.5 132.242 C 34.51 135.445 38.538 135.987 42 135.742 L 42 135.742 L 37 136.742 L 36.5 140.242 L 33.5 133.242 L 32.5 132.242 Z  M 237.5 132.242 C 244.139 134.555 251.868 140.514 251.5 148.242 L 251.5 148.242 L 255 147.742 L 255.5 145.242 L 257 145.742 C 257.495 153.803 251.831 156.449 245.117 152 C 239.342 148.174 236.502 140.273 236 133.742 L 236 133.742 L 237.5 132.242 Z  M 241.5 133.242 L 250 140.742 C 252.367 142.179 252.364 145.332 252 147.742 L 252 147.742 L 251 147.742 C 251.489 142.04 249.757 136.401 243.5 135.242 L 243.5 135.242 L 241.5 133.242 Z  M 282.5 135.242 L 286 137.742 L 284 138.742 L 284.5 137.242 L 282.5 138.242 L 282.5 135.242 Z  M 103.5 136.242 L 105 136.742 C 105.35 138.957 105.088 141.645 102.5 142.242 L 102.5 142.242 L 104 139.742 L 103.5 137.242 L 102 137.742 L 103.5 136.242 Z  M 103.5 137.242 L 104 139.742 L 92 150.742 L 91 153.742 L 93.5 154.242 L 105.5 145.242 C 108.037 146.359 108.295 149.327 108 151.742 L 108 151.742 L 104.5 158.242 C 92.324 161.163 80.656 166.567 71.5 175.242 L 71.5 175.242 L 72 173.742 C 75.737 164.774 80.887 156.382 87.5 149.242 L 87.5 149.242 L 103.5 137.242 Z  M 78.5 138.242 L 82 138.742 C 82.829 142.475 83.339 148.007 79 149.742 L 79 149.742 L 68.5 160.242 C 65.391 159.99 62.412 158.675 61 155.742 L 61 155.742 L 61.5 150.242 L 62.5 152.242 L 65 151.742 L 63 147.742 L 65.5 149.242 C 67.715 149.592 70.403 149.33 71 146.742 L 71 146.742 L 73.5 141.242 L 78.5 138.242 Z  M 156.5 138.242 L 157 141.742 L 155.5 146.242 L 155 142.742 L 156.5 138.242 Z  M 306.5 139.242 L 309 139.742 L 306 145.742 L 306 147.742 C 303.312 158.155 298.663 168.141 291.5 176.242 L 291.5 176.242 L 289 177.742 C 291.878 179.469 290.096 184.578 289.802 187.169 C 288.642 197.402 285.731 207.578 278.5 215.242 L 278.5 215.242 L 276.5 216.242 L 275 215.742 L 275.5 217.242 L 279 219.742 C 281.876 222.632 282.859 226.79 283 230.742 L 283 230.742 L 280 228.742 L 281 226.742 L 279 225.742 L 273.5 217.242 L 270.5 218.242 L 270.5 217.242 L 272 216.742 L 272.5 214.242 L 273.5 216.242 L 277 213.742 L 277.5 212.242 L 282 209.742 C 285.902 200.894 288.006 191.333 289 181.742 L 289 181.742 L 286 176.742 L 292 172.742 L 291.5 171.242 L 289 172.742 C 289.772 171.326 291.28 169.309 293 170.742 L 293 170.742 L 292 168.742 L 294 168.742 L 293 166.742 L 296 164.742 L 295 162.742 L 300 154.742 L 300 152.742 L 300.5 150.242 L 303 149.742 L 301 146.742 L 302.5 146.242 L 303.5 148.242 L 305.5 142.242 L 307 141.742 L 306.5 139.242 Z  M 104.5 140.242 L 102.5 143.242 L 101 143.742 C 101.615 145.096 102.617 145.831 103.5 144.242 L 103.5 144.242 L 105 144.742 L 99.5 148.242 L 99.5 147.242 L 102 145.742 C 98.914 141.333 96.147 146.794 95 149.742 L 95 149.742 L 95.5 151.242 L 98 149.742 C 97.334 151.361 95.932 153.492 94.5 151.242 L 94.5 151.242 L 93 150.742 L 104.5 140.242 Z  M 276.5 140.242 L 277 148.742 L 276 148.742 L 276.5 140.242 Z  M 96.5 141.242 L 94.5 144.242 L 86.5 150.242 L 87.5 148.242 L 96.5 141.242 Z  M 100.5 142.242 L 93 150.742 L 91.5 153.242 L 92 151.742 L 100.5 142.242 Z  M 156.5 142.242 L 157 181.742 L 156 181.742 L 156.5 142.242 Z  M 92.5 143.242 L 88.5 148.242 L 92.5 143.242 Z  M 105.5 144.242 L 107 144.742 L 108 147.742 L 107 147.742 L 105.5 145.242 L 96.5 152.242 L 99.5 148.242 L 105.5 144.242 Z  M 168.5 145.242 Q 170.75 149.492 173 147.742 Q 170.063 151.992 168.5 145.242 Z  M 62.5 146.242 L 64 146.742 L 61 148.742 L 64 149.742 L 60 150.742 L 59.5 152.242 L 59 150.742 L 62.5 146.242 Z  M 168.5 146.242 L 173.5 152.242 L 168.5 146.242 Z  M 300.5 147.242 L 301 149.742 L 297.5 158.242 L 297 156.742 L 300.5 147.242 Z  M 257.5 148.242 L 258.5 153.242 L 260 153.742 L 255 154.742 L 256 156.742 L 255 156.742 L 254.5 155.242 L 252.5 156.242 L 253.5 154.242 L 257 151.742 L 257.5 148.242 Z  M 79.5 149.242 L 68.5 161.242 C 65.391 160.99 62.412 159.675 61 156.742 L 61 156.742 L 64.5 159.242 L 68.5 160.242 L 79.5 149.242 Z  M 41.5 151.242 L 41.5 153.242 L 44 154.742 L 43 156.742 L 43.5 158.242 L 41.5 157.242 L 38.5 159.242 L 38.5 158.242 L 43 154.742 L 41.5 154.242 L 40 154.742 L 41.5 151.242 Z  M 78.5 151.242 L 79.5 153.242 C 78.068 150.993 76.666 153.124 76 154.742 L 76 154.742 L 69 160.742 L 78.5 151.242 Z  M 85.5 151.242 L 82 155.742 L 80.5 158.242 L 81 156.742 L 85.5 151.242 Z  M 243.5 151.242 L 249 153.742 L 247.5 154.242 L 243.5 152.242 L 242 152.742 L 243.5 151.242 Z  M 155.5 152.242 L 156 171.742 L 155 171.742 L 155.5 152.242 Z  M 21.5 153.242 C 23.778 160.563 27.367 167.509 32.5 173.242 L 32.5 173.242 L 37 176.742 L 33.5 174.242 L 30 171.742 C 24.788 166.859 21.715 160.391 21.5 153.242 L 21.5 153.242 Z  M 178.5 154.242 L 183 157.742 L 182.5 159.242 L 180.5 156.242 L 178.5 154.242 Z  M 36.5 158.242 L 38 158.742 L 33 161.742 L 35 162.742 L 33.5 163.242 C 30.939 161.779 32.401 160.175 34.5 159.242 L 34.5 159.242 L 36.5 158.242 Z  M 59.5 158.242 L 61.5 159.242 C 62.383 157.654 63.385 158.389 64 159.742 L 64 159.742 L 62.5 162.242 L 60.5 159.242 L 59 159.742 L 58.5 163.242 L 58 159.742 L 59.5 158.242 Z  M 264.5 158.242 L 266.5 162.242 L 268 161.742 L 267.5 163.242 L 265 161.742 L 264.5 158.242 Z  M 79.5 159.242 L 79 160.742 L 73.5 170.242 L 73 168.742 L 79.5 159.242 Z  M 38.5 160.242 L 38.5 162.242 L 46 162.742 L 35.5 163.242 L 35.5 162.242 L 38.5 160.242 Z  M 255.5 162.242 L 262 171.742 L 261 171.742 C 257.632 169.624 255.441 166.297 255.5 162.242 L 255.5 162.242 Z  M 84.5 166.242 L 83.5 168.242 L 70.5 176.242 L 70.5 175.242 L 72 174.742 L 71.5 173.242 L 73.5 173.242 L 84.5 166.242 Z  M 62.5 167.242 L 63 168.742 L 59.5 173.242 L 60 171.742 L 62.5 167.242 Z  M 293.5 167.242 L 294 168.742 L 290.5 174.242 L 289 173.742 L 293.5 167.242 Z  M 288.5 173.242 L 284.5 178.242 L 275.5 184.242 L 275.5 183.242 L 288.5 173.242 Z  M 58.5 176.242 L 59 186.742 L 55.5 188.242 L 55.5 187.242 L 58 186.742 L 58.5 176.242 Z  M 283.5 178.242 L 284.5 180.242 C 282.743 177.816 280.971 179.754 280 181.742 L 280 181.742 L 283.5 178.242 Z  M 42.5 181.242 L 49 184.742 L 47.5 185.242 C 45.429 184.715 42.854 183.649 42.5 181.242 L 42.5 181.242 Z  M 222.5 182.242 L 236 183.742 L 235.5 185.242 L 230.5 184.242 C 216.257 184.144 200.96 187.861 193 200.742 L 193 200.742 L 191 206.742 L 192 209.742 L 191 211.742 L 192.5 212.242 L 198.5 200.242 C 206.016 190.622 220.432 188.705 231.797 190.508 C 247.779 193.043 259.33 203.538 262 219.742 L 262 219.742 L 261 221.742 C 263.323 223.136 262.575 226.633 262 228.742 L 262 228.742 L 260.5 235.242 L 259 234.742 L 260 218.742 C 259.648 215.433 258.344 212.169 255.5 210.242 L 255.5 210.242 L 250 211.742 L 241.5 222.242 Q 226.478 235.22 201.5 238.242 Q 195.107 238.635 193 234.742 Q 193.5 229.742 189.5 229.242 L 189 233.742 C 191.129 242.709 195.811 250.941 203.5 256.242 L 203.5 256.242 L 215 260.742 L 206.5 261.242 L 197 253.742 Q 183.99 240.752 184 214.742 Q 187.465 198.708 197.5 189.242 Q 206.468 182.21 222.5 182.242 Z  M 224.5 182.242 L 233 182.742 L 224.5 183.242 L 224.5 182.242 Z  M 100.5 189.242 C 108.652 188.812 117.823 189.832 124 195.742 L 124 195.742 L 122.5 195.242 L 120.5 194.242 L 120 195.742 Q 127.525 199.717 127 211.742 Q 124.116 220.858 117.5 226.242 Q 103.535 237.277 79.5 238.242 Q 74 234.742 72.5 227.242 Q 69.75 228.492 71 233.742 Q 73.867 243.375 80.5 249.242 L 87 253.742 C 85.822 256.334 80.347 253.519 78.426 252.191 C 76.994 251.202 75.811 249.678 74.922 248.195 C 68.702 237.83 68.539 225.427 70 213.742 L 70 213.742 L 77.5 201.242 L 85 195.742 L 85.5 194.242 L 100.5 189.242 Z  M 180.5 189.242 L 181 190.742 L 178.5 196.242 L 178 194.742 L 180.5 189.242 Z  M 204.5 190.242 L 204.5 195.242 C 202.316 193.713 202.316 191.771 204.5 190.242 L 204.5 190.242 Z  M 232.5 190.242 C 235.315 189.875 238.674 189.84 241 191.742 L 241 191.742 L 238.5 192.242 C 237.219 192.356 231.601 192.976 232.5 190.242 L 232.5 190.242 Z  M 201.5 192.242 C 198.807 193.734 194.506 196.646 196.5 200.242 L 196.5 200.242 L 194 199.742 L 201.5 192.242 Z  M 123.5 194.242 L 125.5 197.242 C 126.383 195.654 127.385 196.389 128 197.742 L 128 197.742 L 134 203.742 L 137 209.742 L 136 209.742 L 130.5 201.242 Q 128.75 203.992 127 199.742 Q 129.25 198.492 126.5 197.242 Q 125.25 199.492 124 196.742 L 123.5 195.242 L 122 195.742 L 123.5 194.242 Z  M 158.5 194.242 L 159 202.742 L 158 202.742 L 158.5 194.242 Z  M 203.5 195.242 L 199.5 200.242 L 203.5 195.242 Z  M 82.5 196.242 L 78.5 201.242 L 82.5 196.242 Z  M 125.5 196.242 C 140.093 205.188 147.972 232.136 134.5 245.242 L 134.5 245.242 L 134 243.742 C 146.142 230.198 136.66 206.942 125.5 196.242 L 125.5 196.242 Z  M 177.5 197.242 L 178 198.742 L 175.5 205.242 L 175 202.742 L 177.5 197.242 Z  M 250.5 198.242 L 255.5 204.242 L 250.5 198.242 Z  M 36.5 207.242 C 38.494 206.993 40.621 207.47 41 209.742 L 41 209.742 L 49 216.742 L 47.5 216.242 L 36.5 208.242 L 32.5 215.242 L 32 213.742 L 36.5 207.242 Z  M 36.5 208.242 L 56 221.742 C 56.902 239.935 59.293 258.124 64 275.742 L 64 275.742 L 61 273.742 C 57.727 269.604 56.129 264.418 55.5 259.242 L 55.5 259.242 L 53 259.742 L 50.5 267.242 L 48 265.742 C 46.23 262.985 45.591 259.615 45.478 256.39 C 45.389 253.863 48.043 247.398 45.5 246.242 L 45.5 246.242 L 42 247.742 L 37.5 253.242 C 34.177 247.427 34.226 240.19 35 233.742 L 35 233.742 L 42 220.742 L 39.5 220.242 L 31 227.742 C 30.257 220.998 30.652 212.768 36.5 208.242 L 36.5 208.242 Z  M 252.5 210.242 L 256 211.742 L 254.5 211.242 C 252.194 210.986 249.871 211.648 249.5 214.242 L 249.5 214.242 L 252.5 210.242 Z  M 69.5 214.242 L 70 232.742 L 69 232.742 L 69.5 214.242 Z  M 50.5 217.242 L 56 220.742 L 54.5 220.242 C 52.784 220.028 50.5 219.358 50.5 217.242 L 50.5 217.242 Z  M 272.5 217.242 L 276 219.742 L 277 221.742 L 275 220.742 L 273.5 218.242 L 272.5 217.242 Z  M 259.5 218.242 L 260 229.742 L 259 229.742 L 259.5 218.242 Z  M 271.5 218.242 L 275 219.742 Q 282 226.742 281 241.742 Q 278 235.409 275 239.742 Q 282.188 247.555 280 264.742 L 278 263.742 L 272.5 256.242 L 270 256.742 L 273 264.742 C 272.584 269.879 270.786 275.074 266.5 278.242 L 266.5 278.242 L 263.5 268.242 L 262 268.742 C 261.583 274.437 259.836 280.283 255.5 284.242 L 255.5 284.242 L 254 284.742 L 253.5 286.242 L 250.5 288.242 L 250 285.742 C 259.448 265.153 264.335 242.711 266.5 220.242 L 266.5 220.242 L 271.5 218.242 Z  M 30.5 219.242 L 31.5 228.242 C 31.84 222.468 36.034 219.955 41.5 220.242 L 41.5 220.242 L 42 222.742 L 38 225.742 L 41 221.742 L 39.5 221.242 L 35.5 226.242 L 32 228.742 L 32.5 231.242 L 34 231.742 L 33.5 233.242 L 31 232.742 C 29.018 228.549 29.461 223.62 30.5 219.242 L 30.5 219.242 Z  M 39.5 221.242 L 40.5 223.242 C 39.617 221.654 38.615 222.389 38 223.742 L 38 223.742 L 38.5 225.242 L 36 224.742 L 39.5 221.242 Z  M 40.5 221.242 L 40 222.742 L 39.5 224.242 L 38 224.742 L 36.5 227.242 L 35 227.742 L 34.5 229.242 L 34 227.742 L 40.5 221.242 Z  M 141.5 221.242 L 142 230.742 L 141 230.742 L 141.5 221.242 Z  M 56.5 222.242 L 57 230.742 L 56 230.742 L 56.5 222.242 Z  M 172.5 225.242 L 173 235.742 L 172 235.742 L 172.5 225.242 Z  M 34.5 226.242 L 36.5 227.242 L 38 226.742 L 34.5 231.242 L 32 230.742 L 34 229.742 L 32 228.742 L 34.5 226.242 Z  M 74.5 232.242 L 80 238.742 L 74 233.742 L 74.5 232.242 Z  M 34.5 234.242 L 35 244.742 L 34 244.742 L 34.5 234.242 Z  M 162.5 234.242 L 163 244.742 L 162 244.742 L 162.5 234.242 Z  M 191.5 234.242 L 193 234.742 L 194.5 237.242 L 198 237.742 L 194.5 238.242 L 191.5 234.242 Z  M 281.5 234.242 L 284 235.742 Q 286.75 245.992 282 248.742 Q 284.25 249.992 283 254.742 L 282 257.742 L 283 261.742 L 282 261.742 L 281 255.742 L 282 253.742 L 277 242.742 L 278.5 242.242 L 280.5 245.242 L 281.5 234.242 Z  M 276.5 238.242 C 280.049 238.597 281.27 241.498 281 244.742 L 281 244.742 L 280 244.742 L 276.5 239.242 L 276 240.742 L 276.5 242.242 L 275 239.742 L 276.5 238.242 Z  M 137.5 241.242 L 137 242.742 L 133.5 247.242 L 133 244.742 L 136 243.742 L 137.5 241.242 Z  M 161.5 242.242 C 163.68 245.191 163.512 249.306 163 252.742 L 163 252.742 L 162 252.742 L 161.5 242.242 Z  M 132.5 245.242 L 133.5 247.242 L 136 245.742 C 134.973 248.207 133.01 250.959 131 247.742 L 131 247.742 L 132.5 245.242 Z  M 194.5 245.242 Q 196.25 248.326 198 246.742 Q 195.5 248.242 199 249.742 L 201 252.742 L 198 250.742 L 194.5 245.242 Z  M 43.5 246.242 L 43 247.742 L 38.5 254.242 L 37 253.742 L 43.5 246.242 Z  M 44.5 247.242 L 45 249.742 L 44.5 252.242 L 42.5 252.242 L 41 252.742 L 39.5 258.242 L 38.5 256.242 L 37 255.742 L 40 253.742 L 41.5 251.242 L 43 250.742 L 44.5 247.242 Z  M 45.5 249.242 L 46 259.742 L 45 259.742 L 45.5 249.242 Z  M 76.5 250.242 L 83 254.742 L 80.5 255.242 L 78 254.742 C 80.426 252.986 78.488 251.213 76.5 250.242 L 76.5 250.242 Z  M 163.5 250.242 L 164 274.742 L 163 274.742 L 163.5 250.242 Z  M 86.5 251.242 L 88.5 254.242 L 90.5 254.242 L 92 254.742 L 87.5 257.242 L 86.5 255.242 L 88.5 256.242 L 86 252.742 L 86.5 251.242 Z  M 194.5 251.242 L 201 257.742 Q 204.75 259.492 201.5 261.242 Q 204.078 256.242 194.5 251.242 Z  M 280.5 251.242 L 281 266.742 C 280.029 264.754 278.257 262.816 276.5 265.242 L 276.5 265.242 L 275 264.742 L 275.5 263.242 L 277 263.742 L 274 259.742 L 278 262.742 L 279.5 265.242 L 280.5 251.242 Z  M 162.5 256.242 L 163 280.742 L 162 280.742 L 162.5 256.242 Z  M 177.5 256.242 L 178 285.742 L 177 285.742 L 177.5 256.242 Z  M 273.5 258.242 L 280.5 267.242 L 282.5 264.242 L 284 267.742 L 282.5 270.242 C 280.645 270.654 277.872 270.923 277 268.742 L 277 268.742 L 275.5 266.242 L 274 266.742 L 275 270.742 C 274.077 274.88 271.996 278.735 268.5 281.242 L 268.5 281.242 L 267 280.742 L 265.5 284.242 L 262 283.742 L 261.5 281.242 L 258.5 286.242 L 256 287.742 L 254.5 290.242 L 248 292.742 L 237 308.742 C 242.775 311.245 249.296 311.617 255.5 311.242 L 255.5 311.242 L 259.5 309.242 L 261.5 310.242 C 260.187 308.791 261.73 307.463 263 306.742 L 263 306.742 L 265 302.742 L 264.5 301.242 L 266.5 302.242 L 270.5 296.242 L 272 295.742 L 272.5 294.242 L 274 293.742 L 274.5 292.242 L 278 289.742 L 277.5 288.242 C 278.66 290.175 279.862 288.73 280.5 287.242 L 280.5 287.242 L 292.5 280.242 L 295.5 281.242 C 298.376 277.407 304.789 279.129 308.5 280.242 L 308.5 280.242 L 308.5 281.242 L 307 281.742 L 309.5 282.242 C 310.648 280.175 313.658 280.758 315.5 281.242 L 315.5 281.242 L 332.5 281.242 L 333.5 283.242 C 336.86 278.849 343.224 281.703 347.5 282.242 C 350.689 282.644 353.809 282.315 356.97 283.272 C 363.428 285.228 369.168 291.419 369.5 298.242 L 369.5 298.242 L 371 298.742 L 371 300.742 L 372 304.742 L 368.5 306.242 L 369 304.742 C 367.989 297.952 365.112 291.406 359.5 287.242 L 359.5 287.242 L 353 285.742 L 352.5 284.242 L 345 285.742 L 346 288.742 L 344 287.742 L 342.5 283.242 L 335 283.742 L 338 284.742 L 338 286.742 L 337.5 288.242 L 336 287.742 L 334.5 284.242 L 313.5 282.242 C 309.223 287.412 300.36 285.266 295 283.742 L 295 283.742 L 294.5 285.242 L 294 283.742 L 294.5 282.242 C 287.128 284.828 280.303 288.961 275 294.742 L 275 294.742 L 276 298.742 L 275 298.742 L 274.5 296.242 L 262.5 311.242 L 261 311.742 L 262.5 314.242 L 259.5 312.242 L 259.5 314.242 L 256.5 313.242 L 243.5 311.242 C 242.352 313.309 239.342 312.727 237.5 312.242 L 237.5 312.242 L 235 308.742 L 248.5 289.242 L 250.5 290.242 L 254.5 285.242 L 260 281.742 L 260 279.742 L 261.5 274.242 L 263 273.742 L 262 269.742 L 263.5 269.242 L 264 270.742 L 264 272.742 L 263 274.742 L 265.5 279.242 L 269 276.742 C 272.029 273.081 273.467 268.399 274 263.742 L 274 263.742 L 274 261.742 L 273.5 260.242 L 272 260.742 L 273.5 258.242 Z  M 271.5 259.242 L 274 264.742 L 272.5 269.242 L 272 265.742 L 273 263.742 L 271.5 259.242 Z  M 52.5 261.242 L 53 263.742 L 50.5 269.242 L 48.5 266.242 L 50.5 267.242 L 52.5 261.242 Z  M 58.5 269.242 L 63.5 276.242 L 65 275.742 L 66 278.742 L 60 273.742 L 58.5 269.242 Z  M 264.5 273.242 L 266.5 278.242 L 269 276.742 L 265.5 279.242 L 264.5 273.242 Z  M 58.5 274.242 C 62.134 273.963 65.149 275.383 65.5 279.242 L 65.5 279.242 L 67 278.742 C 72.588 295.48 81.631 311.055 94.5 323.242 L 94.5 323.242 L 98 325.742 L 99 327.742 L 99 329.742 C 94.775 341.814 92.518 354.517 91.5 367.242 L 91.5 367.242 L 91 358.742 C 94.973 348.574 96.608 337.606 97 326.742 L 97 326.742 L 95 326.742 C 97.842 324.775 94.45 323.005 92.5 322.242 L 92.5 322.242 L 89.5 320.242 L 88 320.742 L 89 318.742 L 87 317.742 C 78.663 308.145 72.203 297.032 67.5 285.242 L 67.5 285.242 L 66 284.742 L 65.5 283.242 L 64 282.742 C 60.032 281.435 56.523 278.703 58.5 274.242 L 58.5 274.242 Z  M 259.5 278.242 L 260 279.742 L 255.5 285.242 L 254 284.742 L 258 281.742 L 259.5 278.242 Z  M 162.5 281.242 L 163.5 287.242 L 167 287.742 L 163.5 288.242 C 160.828 286.853 161.608 283.499 162.5 281.242 L 162.5 281.242 Z  M 313.5 282.242 L 322 282.742 L 313.5 283.242 L 313.5 282.242 Z  M 250.5 283.242 L 251 284.742 L 250 287.742 L 253 286.742 C 252.621 289.015 250.494 289.491 248.5 289.242 L 248.5 289.242 L 249 287.742 L 250.5 283.242 Z  M 295.5 283.242 L 328 283.742 L 296 284.742 L 295.5 289.242 L 295.5 283.242 Z  M 335.5 283.242 L 343 283.742 L 336.5 285.242 L 335.5 283.242 Z  M 296.5 284.242 C 309.186 282.588 322.578 282.136 335 285.742 L 335 285.742 L 339 304.742 L 337.5 304.242 L 327.5 305.242 C 317.244 306.049 305.912 305.463 297 299.742 L 297 299.742 L 296.5 284.242 Z  M 329.5 284.242 C 331.608 283.74 334.887 283.294 336 285.742 L 336 285.742 L 335.5 287.242 L 334.5 285.242 C 333.621 285.425 328.469 286.563 329.5 284.242 L 329.5 284.242 Z  M 338.5 284.242 C 340.355 283.83 343.128 283.562 344 285.742 L 344 285.742 L 345 291.742 L 344 291.742 L 342.5 285.242 L 337.5 286.242 L 338.5 284.242 Z  M 338.5 285.242 L 343 285.742 Q 348.5 295.242 348 310.742 Q 347.25 312.992 343.5 312.242 Q 340.464 310.278 341 304.742 Q 341.547 292.477 338.5 285.242 Z  M 345.5 285.242 L 353 285.742 L 346 286.742 L 347 291.742 L 346 291.742 L 345.5 285.242 Z  M 346.5 286.242 C 352.923 285.636 360.565 286.479 364 292.742 L 364 292.742 L 368 304.742 C 363.061 307.756 351.542 309.501 348.775 303.286 C 346.379 297.903 345.947 292.057 346.5 286.242 L 346.5 286.242 Z  M 355.5 286.242 C 359.119 286.613 362.469 288.289 364 291.742 L 364 291.742 L 359.5 288.242 C 358.387 288.254 354.696 288.303 355.5 286.242 L 355.5 286.242 Z  M 162.5 287.242 L 170 288.742 L 163.5 289.242 L 162.5 287.242 Z  M 336.5 288.242 L 338 295.742 L 337 295.742 L 336.5 288.242 Z  M 79.5 290.242 C 83.279 295.541 93.334 298.518 99.5 296.242 C 103.598 294.73 107.532 290.483 112.5 291.242 C 116.199 291.808 115.403 299.543 115 301.742 L 115 301.742 L 107 307.742 L 100.5 315.242 C 89.592 313.802 82.174 299.5 79.5 290.242 L 79.5 290.242 Z  M 83.5 291.242 L 89 294.742 L 87.5 295.242 L 83.5 291.242 Z  M 103.5 291.242 L 104.5 293.242 L 102.5 294.242 L 101 293.742 L 100.5 295.242 L 99 294.742 C 99.772 293.327 101.28 291.309 103 292.742 L 103 292.742 L 103.5 291.242 Z  M 162.5 294.242 L 171 294.742 L 162.5 295.242 L 162.5 294.242 Z  M 115.5 295.242 L 116 301.742 L 110.5 306.242 L 111.5 304.242 L 115 301.742 L 115.5 295.242 Z  M 157.5 295.242 C 166.684 294.488 176.493 294.825 185 298.742 L 185 298.742 L 180.5 299.242 C 179.352 297.175 176.342 297.758 174.5 298.242 L 174.5 298.242 L 162.5 297.242 C 154.052 297.161 145.399 298.085 137.5 301.242 L 137.5 301.242 L 138.5 299.242 L 157.5 295.242 Z  M 165.5 295.242 L 176 295.742 L 165.5 296.242 L 165.5 295.242 Z  M 338.5 295.242 L 340 295.742 L 341 305.742 L 339.5 306.242 L 340 304.742 L 338.5 295.242 Z  M 338.5 297.242 L 340 304.742 C 339.385 306.096 338.383 306.831 337.5 305.242 L 337.5 305.242 L 334 304.742 L 337.5 304.242 L 339 304.742 L 338.5 297.242 Z  M 366.5 297.242 L 369 304.742 L 365.5 306.242 L 365.5 305.242 L 368 304.742 L 366.5 297.242 Z  M 185.5 298.242 L 193 300.742 L 189.5 301.242 L 183 299.742 L 185.5 298.242 Z  M 273.5 298.242 L 275 298.742 C 274.312 304.388 271.724 309.6 266.5 312.242 L 266.5 312.242 L 263 311.742 L 273.5 298.242 Z  M 137.5 299.242 L 141 300.742 L 138.5 301.242 C 137.34 299.309 136.137 300.755 135.5 302.242 L 135.5 302.242 L 133 301.742 L 137.5 299.242 Z  M 271.5 300.242 L 267.5 305.242 L 271.5 300.242 Z  M 297.5 300.242 L 304 302.742 L 301.5 303.242 L 297 301.742 L 297.5 300.242 Z  M 84.5 301.242 L 91 308.742 L 87 305.742 L 84.5 301.242 Z  M 132.5 301.242 L 135 302.742 L 125.5 305.242 L 125.5 304.242 C 128.147 304.328 131.071 303.711 132.5 301.242 L 132.5 301.242 Z  M 159.5 303.242 L 168 303.742 L 159.5 304.242 L 159.5 303.242 Z  M 152.5 304.242 C 169.436 302.321 189.54 302.698 203 314.742 L 203 314.742 L 201.5 314.242 Q 183.357 301.385 147.5 306.242 Q 131.302 308.544 120.5 316.242 L 122.5 313.242 C 131.578 307.845 142.066 305.257 152.5 304.242 L 152.5 304.242 Z  M 317.5 304.242 L 327 304.742 L 317.5 305.242 L 317.5 304.242 Z  M 266.5 306.242 L 265 308.742 L 263 311.742 L 266 312.742 L 262.5 313.242 L 262 311.742 L 266.5 306.242 Z  M 272.5 306.242 L 267.5 312.242 L 272.5 306.242 Z  M 351.5 306.242 L 363 306.742 L 351.5 307.242 L 351.5 306.242 Z  M 363.5 306.242 L 365 306.742 C 363.207 308.861 359.958 308.666 357.5 308.242 L 357.5 308.242 L 357.5 307.242 C 359.342 307.727 362.352 308.309 363.5 306.242 L 363.5 306.242 Z  M 371.5 306.242 C 373.98 307.847 374.259 311.069 374 313.742 L 374 313.742 L 372.5 314.242 L 371 311.742 L 371 309.742 L 371.5 306.242 Z  M 272.5 307.242 L 272.5 310.242 C 271.068 307.993 269.666 310.124 269 311.742 L 269 311.742 L 269.5 313.242 L 267.5 313.242 L 266 312.742 L 272.5 307.242 Z  M 106.5 309.242 L 101.5 315.242 L 106.5 309.242 Z  M 153.5 309.242 C 157.141 308.492 162.041 307.895 165 310.742 L 165 310.742 L 164.5 312.242 C 141.642 314.305 118.571 322.086 103.5 340.242 L 103.5 340.242 L 104 338.742 C 110.625 323.2 129.747 313.75 145.415 310.532 C 148.087 309.983 150.79 309.559 153.5 309.242 L 153.5 309.242 Z  M 104.5 312.242 L 107 312.742 C 104.61 312.351 102.718 314.492 101.5 316.242 L 101.5 316.242 L 100 315.742 L 104.5 312.242 Z  M 202.5 313.242 L 206.5 318.242 L 201 314.742 L 202.5 313.242 Z  M 258.5 314.242 C 261.213 325.156 261.635 336.557 261 347.742 L 261 347.742 L 259.5 348.242 C 256.833 345.575 257.332 341.085 258 337.742 L 258 337.742 L 257 317.742 L 258.5 314.242 Z  M 256.5 316.242 L 257 329.742 L 256 329.742 L 256.5 316.242 Z  M 204.5 317.242 L 209 319.742 L 210 321.742 L 207.5 320.242 L 205.5 319.242 L 204 319.742 L 204.5 317.242 Z  M 126.5 322.242 L 125.5 324.242 C 118.329 326.286 112.134 330.644 108.5 337.242 L 108.5 337.242 L 113.5 331.242 L 126.5 322.242 Z  M 372.5 322.242 L 373.5 324.242 L 375 323.742 L 376 329.742 L 373 327.742 L 372.5 324.242 L 371 323.742 L 372.5 322.242 Z  M 113.5 323.242 Q 118 326.242 110.5 329.242 Q 115.333 326.242 113.5 323.242 Z  M 116.5 323.242 L 107.5 333.242 L 116.5 323.242 Z  M 260.5 324.242 L 261 339.742 L 260 339.742 L 260.5 324.242 Z  M 300.5 324.242 L 317 324.742 C 311.949 323.396 303.759 321.677 300 326.742 L 300 326.742 L 299.5 341.242 L 299 326.742 L 300.5 324.242 Z  M 325.5 324.242 C 330.223 322.853 338.441 320.76 342 325.742 L 342 325.742 L 341.5 327.242 L 340.5 325.242 L 329.5 325.242 C 328.694 325.403 324.486 326.271 325.5 324.242 L 325.5 324.242 Z  M 352.5 324.242 L 373 324.742 L 372.5 327.242 L 371.5 325.242 L 352 325.742 L 351.5 327.242 L 351 325.742 L 352.5 324.242 Z  M 257.5 325.242 L 258 343.742 L 257 343.742 L 257.5 325.242 Z  M 299.5 325.242 L 299 326.742 L 298.5 333.242 L 298 326.742 L 299.5 325.242 Z  M 301.5 325.242 L 341 325.742 C 343.061 328.54 342.622 332.555 342 335.742 L 342 335.742 L 342 362.742 L 340.5 367.242 C 331.991 369.109 323.133 369.068 314.5 368.242 L 314.5 368.242 L 300 365.742 L 300 336.742 C 299.052 333.33 297.764 327.577 301.5 325.242 L 301.5 325.242 Z  M 352.5 325.242 L 372 325.742 Q 376.154 342.088 374 364.742 Q 369.125 370.367 355.5 367.242 L 353 365.742 L 354 344.742 C 351.933 343.594 352.515 340.584 353 338.742 L 353 338.742 L 352.5 325.242 Z  M 342.5 326.242 L 346 327.742 L 343 328.742 C 347.812 332.592 345.467 340.974 344 345.742 L 344 345.742 L 343 345.742 L 342.5 326.242 Z  M 151.5 327.242 L 157 331.742 L 158 334.742 L 152.5 334.242 L 151 333.742 L 155 332.742 L 154.5 331.242 C 149.534 330.662 143.96 330.65 139.5 333.242 L 139.5 333.242 L 140.5 331.242 L 151.5 327.242 Z  M 152.5 327.242 L 159 332.742 L 158.5 335.242 L 153.5 328.242 L 152.5 327.242 Z  M 154.5 327.242 L 158.5 332.242 L 154.5 327.242 Z  M 349.5 327.242 L 352 327.742 L 353 364.742 C 351.411 365.625 352.147 366.627 353.5 367.242 L 353.5 367.242 L 356 367.742 L 353.5 368.242 L 351 366.742 Q 348.25 357.492 352 354.742 Q 354.005 335.154 349.5 327.242 Z  M 225.5 328.242 L 227 328.742 L 225 329.742 L 224.5 336.242 L 224 329.742 L 225.5 328.242 Z  M 227.5 328.242 C 232.749 334.573 231.526 344.368 230 351.742 L 230 351.742 L 228.5 351.242 L 226 350.742 L 225 329.742 L 227.5 328.242 Z  M 348.5 328.242 C 351.729 330.087 350.772 334.846 350 337.742 L 350 337.742 L 351 359.742 C 351.89 363.795 352.662 368.991 350.079 372.633 C 348.712 374.56 343.763 375.266 344 371.742 C 344.925 357.978 345.87 344.571 345 330.742 L 345 330.742 L 344.5 329.242 L 348.5 328.242 Z  M 352.5 329.242 L 353 340.742 L 352 340.742 L 352.5 329.242 Z  M 140.5 330.242 L 142 330.742 L 139 332.742 L 140.5 333.242 L 143.5 332.242 L 143.5 333.242 L 138.5 334.242 L 138 332.742 L 140.5 330.242 Z  M 344.5 330.242 L 345 361.742 L 344 361.742 L 344.5 330.242 Z  M 350.5 330.242 L 351 345.742 L 350 345.742 L 350.5 330.242 Z  M 151.5 331.242 L 154 332.742 C 151.327 332.245 147.609 332.019 146 334.742 L 146 334.742 L 148 335.742 L 146.5 336.242 L 144 332.742 L 146.5 332.242 L 151.5 331.242 Z  M 230.5 331.242 L 231.5 333.242 C 232.648 331.175 235.658 331.758 237.5 332.242 L 237.5 332.242 L 252.5 332.242 L 252.5 333.242 L 232 333.742 L 231.5 337.242 L 230.5 331.242 Z  M 256.5 331.242 C 256.076 337.258 256.331 343.548 258.5 349.242 L 258.5 349.242 L 261 348.742 L 261.5 342.242 L 262 349.742 L 258.5 350.242 C 255.667 348.066 255.544 343.968 256 340.742 C 256.383 338.038 257.231 334.127 254 332.742 L 254 332.742 L 256 332.742 L 256.5 331.242 Z  M 113.5 332.242 Q 109.881 334.742 111.5 337.242 Q 107.5 334.742 113.5 332.242 Z  M 232.5 333.242 L 233 344.742 L 232 344.742 L 232.5 333.242 Z  M 233.5 333.242 C 240.398 331.931 248.627 331.075 255 334.742 L 255 334.742 L 254.5 346.242 L 240.5 348.242 L 233 345.742 L 233.5 333.242 Z  M 252.5 333.242 L 256 334.742 L 255.5 346.242 L 254.5 334.242 C 253.797 334.359 251.584 334.616 252.5 333.242 L 252.5 333.242 Z  M 342.5 333.242 L 343 360.742 L 342 360.742 L 342.5 333.242 Z  M 230.5 334.242 L 231 351.742 L 230 351.742 L 230.5 334.242 Z  M 182.5 335.242 L 186 336.742 L 188 340.742 L 185.5 341.242 L 176 337.742 L 176.5 336.242 L 181.5 338.242 L 182.5 335.242 Z  M 185.5 335.242 L 189 341.742 L 187.5 342.242 L 188 340.742 L 185.5 335.242 Z  M 223.5 336.242 L 225 336.742 L 224.5 344.242 L 223.5 336.242 Z  M 225.5 338.242 L 226.5 351.242 L 229 351.742 L 226.5 352.242 C 222.053 349.183 224.056 342.296 225.5 338.242 L 225.5 338.242 Z  M 298.5 338.242 C 302.433 345.234 301.451 354.245 300 361.742 L 300 361.742 L 298.5 362.242 L 298 354.742 L 298 352.742 L 298.5 338.242 Z  M 105.5 339.242 L 99 346.742 L 98.5 348.242 L 98 346.742 L 101.5 340.242 L 102.5 342.242 L 105.5 339.242 Z  M 374.5 339.242 L 375 365.742 C 370.141 370.16 362.388 369.375 356.5 368.242 L 356.5 368.242 L 356.5 367.242 C 361.928 368.468 369.864 369.63 374 364.742 L 374 364.742 L 374.5 339.242 Z  M 120.5 340.242 C 122.109 339.92 124.365 339.839 125 341.742 L 125 341.742 L 124.5 346.242 L 122 347.742 L 117.5 353.242 L 109 359.742 L 108.5 361.242 L 108 359.742 C 113.935 359.021 116.263 354.311 116 348.742 L 116 348.742 L 114.5 348.242 L 107.5 356.242 L 107 354.742 L 116.5 343.242 L 120.5 340.242 Z  M 231.5 340.242 C 231.373 342.913 231.8 345.942 234 347.742 L 234 347.742 L 232 348.742 L 230.5 354.242 L 229.5 352.242 L 231 351.742 L 231.5 340.242 Z  M 115.5 343.242 L 110.5 349.242 L 115.5 343.242 Z  M 146.5 344.242 L 161 344.742 L 146.5 345.242 L 146.5 344.242 Z  M 353.5 344.242 L 354 359.742 L 353 359.742 L 353.5 344.242 Z  M 143.5 345.242 C 154.617 343.929 167.482 343.962 177 350.742 L 177 350.742 L 175.5 354.242 L 172.5 355.242 Q 165.286 350.957 151.5 353.242 Q 143.5 353.242 139.5 357.242 Q 136.25 355.492 136 350.742 L 143.5 345.242 Z  M 114.5 348.242 L 116 348.742 L 109 354.742 L 109.5 356.242 L 116 350.742 L 110 357.742 L 113 356.742 C 111.973 359.207 110.01 361.959 108 358.742 L 108 358.742 L 109 356.742 L 107 357.742 L 106.5 359.242 L 106 355.742 L 108 355.742 L 107 352.742 L 110 350.742 L 108 353.742 L 114.5 348.242 Z  M 137.5 348.242 L 136 350.742 L 139 356.742 L 137.5 357.242 L 135 350.742 L 137.5 348.242 Z  M 114.5 349.242 L 116 349.742 L 108.5 358.242 L 107 357.742 L 110.5 353.242 L 112 352.742 L 114.5 349.242 Z  M 121.5 350.242 L 122.5 352.242 C 121.617 350.654 120.615 351.389 120 352.742 L 120 352.742 L 120.5 354.242 C 117.939 352.779 119.401 351.175 121.5 350.242 L 121.5 350.242 Z  M 155.5 353.242 L 164 353.742 L 155.5 354.242 L 155.5 353.242 Z  M 343.5 354.242 L 344 364.742 L 341.5 368.242 L 342 366.742 L 343.5 354.242 Z  M 113.5 356.242 Q 110.5 358.742 113.5 361.242 Q 111.25 357.392 109 360.742 L 113.5 356.242 Z  M 192.5 360.242 L 196 362.742 L 197 365.742 L 196 365.742 L 193.5 361.242 L 190.5 362.242 L 190.5 361.242 L 192.5 360.242 Z  M 350.5 360.242 L 351 372.742 C 350.403 375.33 347.715 375.592 345.5 375.242 L 345.5 375.242 L 344.5 373.242 L 343 372.742 L 343.5 365.242 C 343.014 368.453 343.105 372.634 346.5 374.242 L 346.5 374.242 L 350 372.742 L 350.5 360.242 Z  M 192.5 361.242 L 195 362.742 C 201.945 371.184 201.504 383.576 200 393.742 L 200 393.742 L 193.5 403.242 L 186 397.742 C 189.556 390.37 189.748 381.735 189 373.742 L 189 373.742 L 187 365.742 L 189.5 362.242 L 192.5 361.242 Z  M 119.5 363.242 C 123.315 362.765 125.136 366.46 126 369.742 C 126.881 373.09 126.382 376.386 126 379.742 C 125.285 386.03 125.276 392.886 128 398.742 L 128 398.742 L 122.5 402.242 Q 113.674 394.069 115 375.742 Q 114.417 366.659 119.5 363.242 Z  M 256.5 363.242 C 258.109 362.92 260.365 362.839 261 364.742 L 261 364.742 L 259.5 364.242 L 257 364.742 L 256 373.742 L 260 375.742 L 255.5 377.242 L 254.5 368.242 L 251.5 369.242 L 251.5 368.242 L 256 366.742 L 256.5 363.242 Z  M 341.5 363.242 L 342 366.742 C 340.887 369.191 337.608 368.744 335.5 368.242 L 335.5 368.242 L 335.5 367.242 L 341 366.742 L 341.5 363.242 Z  M 258.5 364.242 C 261.212 365.598 260.592 369.375 260 371.742 L 260 371.742 L 258.5 374.242 L 257 373.742 L 258.5 364.242 Z  M 152.5 365.242 C 161.13 365.472 170.117 368.09 175 375.742 L 175 375.742 L 174.5 379.242 L 173 378.742 L 167.5 372.242 C 161.03 365.773 146.97 367.123 142 374.742 L 142 374.742 L 141.5 377.242 L 141 373.742 L 142.5 370.242 C 144.678 366.819 148.62 365.47 152.5 365.242 L 152.5 365.242 Z  M 126.5 368.242 L 127 383.742 L 126 383.742 L 126.5 368.242 Z  M 233.5 368.242 L 242 369.742 L 236.5 370.242 L 234.5 369.242 L 233.5 373.242 L 233.5 368.242 Z  M 253.5 368.242 L 255 368.742 L 254.5 382.242 C 254.713 377.908 255.385 372.33 253.5 368.242 L 253.5 368.242 Z  M 317.5 368.242 L 332 368.742 L 317.5 369.242 L 317.5 368.242 Z  M 172.5 369.242 Q 170.881 371.742 174.5 374.242 Q 168.5 371.742 172.5 369.242 Z  M 252.5 369.242 L 254 369.742 C 252.887 373.453 251.165 379.866 255 382.742 L 255 382.742 L 241.5 384.242 L 234 382.742 L 234.5 370.242 C 239.539 371.8 248.404 374.302 252.5 369.242 L 252.5 369.242 Z  M 147.5 370.242 L 146.5 372.242 L 144 373.742 L 142.5 376.242 L 142 374.742 L 147.5 370.242 Z  M 170.5 370.242 L 174.5 375.242 L 170.5 370.242 Z  M 165.5 371.242 C 167.93 372.571 169.649 374.677 167 376.742 L 167 376.742 L 165.5 379.242 L 166 377.742 L 165 375.742 L 165.5 371.242 Z  M 256.5 371.242 L 257.5 374.242 L 259 373.742 L 259.5 372.242 L 260 374.742 L 257.5 375.242 C 255.675 374.512 255.728 372.787 256.5 371.242 L 256.5 371.242 Z  M 167.5 372.242 L 172.5 378.242 L 167.5 372.242 Z  M 233.5 373.242 L 234.5 383.242 L 241 383.742 L 233.5 384.242 L 233.5 373.242 Z  M 140.5 374.242 L 142 378.742 L 140.5 381.242 L 139 378.742 L 140.5 374.242 Z  M 152.5 374.242 C 156.617 373.584 161.919 373.353 165 376.742 L 165 376.742 L 164.5 379.242 C 160.922 384.378 154.351 385.489 148.5 385.242 L 148.5 385.242 L 148 379.742 L 152.5 374.242 Z  M 200.5 376.242 L 201 391.742 L 200 391.742 L 200.5 376.242 Z  M 225.5 376.242 L 227 376.742 L 225 377.742 L 224.5 385.242 L 223 384.742 C 222.62 381.791 222.732 378.07 225.5 376.242 L 225.5 376.242 Z  M 225.5 377.242 L 231 377.742 C 231.367 380.557 231.403 383.917 229.5 386.242 L 229.5 386.242 L 225 384.742 L 225.5 377.242 Z  M 255.5 378.242 L 259 382.742 L 257 382.742 L 257.5 385.242 L 259 385.742 L 258.5 387.242 L 261 388.742 L 267.5 400.242 L 269 399.742 C 268.684 406.307 270.639 413.063 277.5 415.242 L 277.5 415.242 L 283 419.742 L 282.5 421.242 L 291.5 426.242 L 292.5 424.242 L 293 425.742 L 293 427.742 L 292.5 429.242 L 282 422.742 L 280.5 420.242 L 278 421.742 L 278 419.742 L 277.5 417.242 L 276 416.742 C 271.212 405.375 264.201 394.996 255 386.742 L 255 386.742 L 255.5 385.242 L 253 385.742 L 253.5 387.242 C 247.382 388.687 238.603 390.163 233.5 385.242 L 233.5 385.242 L 231.5 389.242 L 229.5 390.242 L 227.5 390.242 L 226 389.742 L 225.5 388.242 L 221.5 390.242 L 221 388.742 L 223.5 385.242 L 228.5 387.242 L 233.5 384.242 L 255 383.742 L 255.5 378.242 Z  M 273.5 380.242 L 278 381.742 L 275.5 382.242 L 273.5 381.242 L 272.5 385.242 L 272 381.742 L 273.5 380.242 Z  M 273.5 382.242 C 279.584 382.161 286.217 383.544 290 388.742 L 290 388.742 L 291 396.742 L 289.5 402.242 C 283.712 401.423 280.489 397.543 276.445 393.973 C 273.021 390.949 272.465 386.497 273.5 382.242 L 273.5 382.242 Z  M 93.5 387.242 C 96.14 395.726 100.384 403.746 106.5 410.242 L 106.5 410.242 L 109.5 412.242 L 111 411.742 L 110 413.742 C 111.252 415.997 113.212 417.245 115 414.742 L 115 414.742 L 113.5 417.242 Q 129.646 431.096 156.5 434.242 Q 166.936 435.178 172.5 431.242 L 173 432.742 C 166.528 437.54 156.883 436.787 149.5 435.242 C 139.013 433.048 128.617 428.853 119.5 423.242 L 119.5 423.242 L 118 423.742 C 119.589 422.86 118.853 421.857 117.5 421.242 L 117.5 421.242 L 113 418.742 L 111.5 416.242 L 106 411.742 L 104.5 409.242 L 103 408.742 C 97.914 402.584 94.733 395.114 93.5 387.242 L 93.5 387.242 Z  M 291.5 389.242 L 292 398.742 L 291 398.742 L 291.5 389.242 Z  M 221.5 391.242 L 221 392.742 C 219.172 399.444 215.944 405.799 211 410.742 L 211 410.742 L 211.5 412.242 L 209.5 411.242 L 209 412.742 L 209.5 414.242 Q 206.5 410.242 203.5 418.242 Q 191.54 428.283 174.5 433.242 L 174 431.742 L 182 428.742 L 181.5 427.242 L 184.5 428.242 L 191 424.742 L 189.5 422.242 L 192.5 424.242 L 198 419.742 L 197.5 418.242 L 199.5 419.242 L 206 413.742 L 207.5 411.242 L 210 409.742 L 221.5 391.242 Z  M 277.5 393.242 L 282.5 399.242 L 285 400.742 L 283.5 400.242 L 278 395.742 L 277.5 393.242 Z  M 128.5 397.242 L 129 398.742 L 123.5 402.242 L 123.5 401.242 L 128 398.742 L 128.5 397.242 Z  M 188.5 399.242 L 193.5 403.242 L 196.5 399.242 L 196 400.742 L 193.5 404.242 L 188.5 399.242 Z  M 269.5 399.242 C 274.869 398.829 279.471 400.924 280 406.742 L 280 406.742 L 272.5 400.242 C 271.739 400.385 268.517 400.963 269.5 399.242 L 269.5 399.242 Z  M 269.5 400.242 C 272.335 399.873 275.427 400.496 276 403.742 L 276 403.742 L 286 412.742 L 285.5 419.242 C 281.798 418.411 278.621 416.24 277 412.742 L 277 412.742 L 269.5 400.242 Z  M 269.5 401.242 C 272.656 407.706 277.029 413.555 282.5 418.242 L 282.5 418.242 L 284 418.742 L 282.5 419.242 C 276.56 414.582 271.918 408.427 269.5 401.242 L 269.5 401.242 Z  M 297.5 405.242 L 301 405.742 L 297 406.742 L 296.5 410.242 L 296 406.742 L 297.5 405.242 Z  M 331.5 405.242 L 335 405.742 L 334.5 410.242 L 333.5 406.242 L 321.5 407.242 L 321.5 406.242 C 324.426 407.092 329.367 408.324 331.5 405.242 L 331.5 405.242 Z  M 347.5 405.242 L 349 405.742 L 346 407.742 L 343.5 418.242 L 342 417.742 L 344 412.742 L 341 411.742 L 343 410.742 L 343.5 409.242 L 344.5 411.242 C 344.404 408.831 345.064 406.245 347.5 405.242 L 347.5 405.242 Z  M 297.5 406.242 C 308.389 408.023 319.52 408.072 330.5 407.242 L 330.5 407.242 L 333.5 406.242 L 334 410.742 L 329.5 426.242 L 293 425.742 C 296.575 419.957 297.546 412.925 297.5 406.242 L 297.5 406.242 Z  M 305.5 406.242 L 317 406.742 L 305.5 407.242 L 305.5 406.242 Z  M 347.5 406.242 L 352 406.742 L 347 407.742 L 346.5 410.242 L 346 407.742 L 347.5 406.242 Z  M 352.5 406.242 L 365 406.742 L 352.5 407.242 L 352.5 406.242 Z  M 281.5 407.242 C 287.016 408.424 287.715 413.977 287 418.742 L 287 418.742 L 285 419.742 C 287.323 418.349 286.575 414.852 286 412.742 L 286 412.742 L 281.5 407.242 Z  M 347.5 407.242 L 361.5 408.242 L 365.5 407.242 L 366 408.742 C 362.278 419.983 355.512 426.497 343.5 425.242 L 343.5 425.242 L 343 421.742 L 347.5 407.242 Z  M 176.5 408.242 L 180 410.742 L 177.5 414.242 C 173.334 416.742 168.517 417.965 163.719 418.461 C 157.177 419.138 143.436 420.396 139 413.742 L 139 413.742 L 139.5 411.242 C 147.527 413.787 156.178 413.948 164.5 413.242 L 164.5 413.242 L 176.5 408.242 Z  M 178.5 408.242 L 180 408.742 L 181 411.742 L 178 413.742 L 180 410.742 L 178.5 408.242 Z  M 149.5 412.242 L 165 412.742 L 149.5 413.242 L 149.5 412.242 Z  M 336.5 412.242 C 338.608 411.74 341.887 411.294 343 413.742 L 343 413.742 L 338.5 426.242 L 333 425.742 L 336.5 412.242 Z  M 332.5 415.242 L 333 418.742 L 329.5 427.242 L 293 426.742 L 330 425.742 L 332.5 415.242 Z  M 149.5 418.242 L 165 418.742 L 149.5 419.242 L 149.5 418.242 Z  M 333.5 420.242 L 334 423.742 L 333 425.742 L 337 426.742 L 333.5 427.242 L 332 424.742 L 333.5 420.242 Z  M 359.5 420.242 L 356.5 424.242 L 351.5 425.242 L 351.5 424.242 C 354.796 424.572 358.469 423.851 359.5 420.242 L 359.5 420.242 Z  M 342.5 422.242 L 343.5 425.242 L 349 425.742 L 342.5 426.242 L 342.5 422.242 Z  M 298.5 428.242 L 313 428.742 L 298.5 429.242 L 298.5 428.242 Z " fill-rule="evenodd" fill="rgb(32,30,32)"/></g></svg>