<?xml version="1.0" encoding="UTF-8" standalone="no"?><!-- Generator: Gravit.io --><svg xmlns="http://www.w3.org/2000/svg" xmlns:xlink="http://www.w3.org/1999/xlink" style="isolation:isolate" viewBox="0 0 281.301 170.843" width="281.301pt" height="170.843pt"><defs><clipPath id="_clipPath_63PkX1i83O86VCelExBKYQO0aovXGoVp"><rect width="281.301" height="170.843"/></clipPath></defs><g clip-path="url(#_clipPath_63PkX1i83O86VCelExBKYQO0aovXGoVp)"><path d=" M 33.586 12.955 L 45.421 12.955 L 40.543 51.259 L 25.909 51.259 L 22.791 35.105 L 22.231 35.105 L 19.192 51.259 L 4.878 51.259 L 0 12.955 L 12.315 12.955 L 13.994 32.307 L 14.634 32.307 L 17.353 12.955 L 28.468 12.955 L 31.107 32.307 L 31.827 32.307 L 33.586 12.955 Z  M 77.088 22.95 L 77.088 22.95 L 76.688 39.504 L 76.688 39.504 Q 76.688 41.023 77.448 41.543 L 77.448 41.543 L 77.448 41.543 Q 78.208 42.063 80.047 42.063 L 80.047 42.063 L 78.847 51.739 L 78.847 51.739 Q 74.209 52.058 73.729 52.058 L 73.729 52.058 L 73.729 52.058 Q 67.812 52.058 66.212 47.98 L 66.212 47.98 L 65.813 47.98 L 65.813 47.98 Q 62.854 52.058 56.696 52.058 L 56.696 52.058 L 56.696 52.058 Q 51.978 52.058 49.459 49.02 L 49.459 49.02 L 49.459 49.02 Q 46.94 45.981 46.94 40.703 L 46.94 40.703 L 46.94 40.703 Q 46.94 34.066 51.059 31.507 L 51.059 31.507 L 51.059 31.507 Q 55.177 28.948 64.053 28.148 L 64.053 28.148 L 64.053 26.229 L 64.053 26.229 Q 64.053 23.99 61.814 23.99 L 61.814 23.99 L 61.814 23.99 Q 57.976 23.99 49.819 26.309 L 49.819 26.309 L 47.82 14.634 L 47.82 14.634 Q 58.056 11.995 64.853 11.995 L 64.853 11.995 L 64.853 11.995 Q 71.65 11.995 74.369 14.634 L 74.369 14.634 L 74.369 14.634 Q 77.088 17.273 77.088 22.95 Z  M 61.654 42.702 L 61.654 42.702 L 61.654 42.702 Q 64.613 42.702 64.613 39.584 L 64.613 39.584 L 64.613 35.665 L 64.613 35.665 Q 61.654 36.065 60.415 36.905 L 60.415 36.905 L 60.415 36.905 Q 59.175 37.744 59.175 39.743 L 59.175 39.743 L 59.175 39.743 Q 59.175 42.702 61.654 42.702 Z  M 105.076 40.703 L 104.677 51.339 L 104.677 51.339 Q 98.759 52.058 94.401 52.058 L 94.401 52.058 L 94.401 52.058 Q 90.043 52.058 87.604 49.779 L 87.604 49.779 L 87.604 49.779 Q 85.165 47.5 85.165 41.903 L 85.165 41.903 L 85.165 23.35 L 81.326 23.35 L 81.326 13.434 L 85.804 13.434 L 86.524 6.077 L 98.599 6.077 L 98.599 13.434 L 105.716 13.434 L 105.156 23.35 L 98.519 23.35 L 98.519 39.264 L 98.519 39.264 Q 98.519 40.943 100.118 40.943 L 100.118 40.943 L 100.118 40.943 Q 100.278 40.943 105.076 40.703 L 105.076 40.703 Z  M 125.188 23.67 L 125.188 23.67 L 125.188 23.67 Q 122.829 23.67 122.029 25.789 L 122.029 25.789 L 122.029 25.789 Q 121.23 27.908 121.23 32.387 L 121.23 32.387 L 121.23 32.387 Q 121.23 36.865 121.989 38.864 L 121.989 38.864 L 121.989 38.864 Q 122.749 40.863 125.188 40.863 L 125.188 40.863 L 125.188 40.863 Q 127.627 40.863 131.545 39.983 L 131.545 39.983 L 132.985 50.219 L 132.985 50.219 Q 127.467 52.058 123.149 52.058 L 123.149 52.058 L 123.149 52.058 Q 115.552 52.058 111.674 46.94 L 111.674 46.94 L 111.674 46.94 Q 107.795 41.823 107.795 32.626 L 107.795 32.626 L 107.795 32.626 Q 107.795 23.43 111.794 17.713 L 111.794 17.713 L 111.794 17.713 Q 115.792 11.995 123.389 11.995 L 123.389 11.995 L 123.389 11.995 Q 129.066 11.995 133.625 13.914 L 133.625 13.914 L 132.185 25.669 L 132.185 25.669 Q 127.547 23.67 125.188 23.67 Z  M 149.378 15.753 L 149.698 15.753 L 149.698 15.753 Q 154.096 11.995 159.214 11.995 L 159.214 11.995 L 159.214 11.995 Q 164.332 11.995 166.451 14.434 L 166.451 14.434 L 166.451 14.434 Q 168.57 16.873 168.57 21.751 L 168.57 21.751 L 168.57 51.259 L 154.976 51.259 L 154.976 26.309 L 154.976 26.309 Q 154.976 24.31 153.216 24.31 L 153.216 24.31 L 153.216 24.31 Q 150.977 24.31 149.458 25.429 L 149.458 25.429 L 149.458 51.259 L 136.023 51.259 L 136.023 0 L 149.378 0 L 149.378 15.753 Z " fill="rgb(26,26,28)"/><path d=" M 104.11 151.123 L 104.11 151.123 L 104.11 151.123 Q 91.156 151.123 85.11 146.805 L 85.11 146.805 L 84.39 146.805 L 84.39 146.805 Q 77.193 151.123 67.837 151.123 L 67.837 151.123 L 67.837 151.123 Q 36.458 151.123 36.458 114.563 L 36.458 114.563 L 36.458 114.563 Q 36.458 97.29 44.735 88.15 L 44.735 88.15 L 44.735 88.15 Q 53.012 79.009 68.557 79.009 L 68.557 79.009 L 68.557 79.009 Q 72.443 79.009 79.353 80.161 L 79.353 80.161 L 79.353 59.002 L 116.057 59.002 L 116.057 124.782 L 116.057 124.782 Q 116.057 128.093 119.512 128.093 L 119.512 128.093 L 117.497 150.404 L 117.497 150.404 Q 107.853 151.123 104.11 151.123 Z  M 77.481 130.828 L 80.36 130.828 L 80.36 103.479 L 77.481 103.479 L 77.481 130.828 Z  M 120.376 114.922 L 120.376 114.922 L 120.376 114.922 Q 120.376 95.994 130.235 87.502 L 130.235 87.502 L 130.235 87.502 Q 140.095 79.009 160.967 79.009 L 160.967 79.009 L 160.967 79.009 Q 181.838 79.009 191.41 87.358 L 191.41 87.358 L 191.41 87.358 Q 200.982 95.706 200.982 114.778 L 200.982 114.778 L 200.982 114.778 Q 200.982 133.851 191.698 142.487 L 191.698 142.487 L 191.698 142.487 Q 182.414 151.123 161.111 151.123 L 161.111 151.123 L 161.111 151.123 Q 139.807 151.123 130.091 142.487 L 130.091 142.487 L 130.091 142.487 Q 120.376 133.851 120.376 114.922 Z  M 159.527 130.828 L 162.406 130.828 L 162.406 103.479 L 159.527 103.479 L 159.527 130.828 Z  M 235.384 79.009 L 235.384 79.009 L 281.301 79.009 L 281.301 97.002 L 273.96 97.002 L 273.96 97.722 L 273.96 97.722 Q 277.558 101.608 277.558 108.373 L 277.558 108.373 L 277.558 108.373 Q 277.558 119.169 271.153 124.279 L 271.153 124.279 L 271.153 124.279 Q 264.748 129.388 250.497 129.388 L 250.497 129.388 L 231.785 129.388 L 231.785 131.979 L 260.429 131.979 L 260.429 131.979 Q 270.793 131.979 275.543 135.722 L 275.543 135.722 L 275.543 135.722 Q 280.293 139.464 280.293 147.237 L 280.293 147.237 L 280.293 147.237 Q 280.293 158.752 269.426 164.798 L 269.426 164.798 L 269.426 164.798 Q 258.558 170.843 237.975 170.843 L 237.975 170.843 L 237.975 170.843 Q 211.058 170.843 205.444 164.222 L 205.444 164.222 L 205.444 164.222 Q 202.997 161.343 202.997 156.161 L 202.997 156.161 L 202.997 156.161 Q 202.997 150.979 208.755 148.389 L 208.755 148.389 L 208.755 147.813 L 208.755 147.813 Q 201.846 144.934 201.846 137.017 L 201.846 137.017 L 201.846 137.017 Q 201.846 127.373 212.641 123.919 L 212.641 123.919 L 212.641 123.199 L 212.641 123.199 Q 202.421 116.722 202.421 103.695 L 202.421 103.695 L 202.421 103.695 Q 202.421 90.668 210.698 84.839 L 210.698 84.839 L 210.698 84.839 Q 218.975 79.009 235.384 79.009 Z  M 252.369 150.692 L 231.785 150.692 L 231.785 153.283 L 252.369 153.283 L 252.369 150.692 Z  M 242.725 100.744 L 239.846 100.744 L 239.846 114.419 L 242.725 114.419 L 242.725 100.744 Z " fill="rgb(26,26,28)"/></g></svg>